<?xml version="1.0" encoding="UTF-8"?>
<svg version="1.1" xmlns="http://www.w3.org/2000/svg" width="356" height="94">
<path d="M0 0 C12 0 12 0 14.90234375 2.2109375 C15.90974609 3.77714844 15.90974609 3.77714844 16.9375 5.375 C17.73945617 6.55867991 18.54154743 7.74226831 19.34375 8.92578125 C19.76140625 9.57369629 20.1790625 10.22161133 20.609375 10.88916016 C22.69497641 14.05490977 24.9430577 17.09685484 27.17993164 20.15673828 C29.34767513 23.12394823 31.48679446 26.11115007 33.62475586 29.09985352 C35.06030429 31.08332119 36.5309256 33.04123413 38 35 C38.33 23.45 38.66 11.9 39 0 C42.3 0 45.6 0 49 0 C49 17.82 49 35.64 49 54 C38 54 38 54 34.3203125 50.4765625 C33.21805387 48.88446696 32.15447315 47.26509979 31.125 45.625 C29.94816057 43.89176145 28.77107053 42.15869304 27.59375 40.42578125 C27.0059375 39.53197754 26.418125 38.63817383 25.8125 37.71728516 C23.47923697 34.21927634 21.01847293 30.82428259 18.53710938 27.43041992 C16.00705786 23.96645894 13.50640074 20.48111214 11 17 C10.67 29.21 10.34 41.42 10 54 C6.7 54 3.4 54 0 54 C0 36.18 0 18.36 0 0 Z " fill="#003265" transform="translate(1,1)"/>
<path d="M0 0 C3.63 0 7.26 0 11 0 C12.50801568 3.93447709 14.00502914 7.87304977 15.5 11.8125 C16.14388672 13.49182617 16.14388672 13.49182617 16.80078125 15.20507812 C17.20683594 16.27822266 17.61289063 17.35136719 18.03125 18.45703125 C18.40830078 19.44678955 18.78535156 20.43654785 19.17382812 21.45629883 C20 24 20 24 20 27 C20.66 27 21.32 27 22 27 C22.309375 25.2984375 22.309375 25.2984375 22.625 23.5625 C23.72263452 18.5710671 25.3636024 13.81153148 27.0625 9 C27.3320752 8.23373291 27.60165039 7.46746582 27.87939453 6.67797852 C29.86724688 1.13275312 29.86724688 1.13275312 31 0 C32.85287502 -0.07226502 34.70833878 -0.0838122 36.5625 -0.0625 C37.57441406 -0.05347656 38.58632812 -0.04445313 39.62890625 -0.03515625 C40.41136719 -0.02355469 41.19382813 -0.01195312 42 0 C42.2673999 0.71655762 42.5347998 1.43311523 42.81030273 2.17138672 C44.01822933 5.40635118 45.22784311 8.64068218 46.4375 11.875 C46.85837891 13.00292969 47.27925781 14.13085938 47.71289062 15.29296875 C48.31713867 16.90751953 48.31713867 16.90751953 48.93359375 18.5546875 C49.30540771 19.54968262 49.67722168 20.54467773 50.06030273 21.56982422 C50.94020345 23.95918706 50.94020345 23.95918706 52 26 C52.2673999 25.2479126 52.5347998 24.4958252 52.81030273 23.72094727 C54.01644061 20.33374719 55.22690977 16.94811121 56.4375 13.5625 C56.85837891 12.37849609 57.27925781 11.19449219 57.71289062 9.97460938 C58.11572266 8.84990234 58.51855469 7.72519531 58.93359375 6.56640625 C59.30540771 5.52427979 59.67722168 4.48215332 60.06030273 3.40844727 C61 1 61 1 62 0 C63.68608966 -0.07205511 65.37500659 -0.08386068 67.0625 -0.0625 C67.98160156 -0.05347656 68.90070313 -0.04445313 69.84765625 -0.03515625 C70.55792969 -0.02355469 71.26820313 -0.01195312 72 0 C70.54753401 8.11188554 67.70029086 15.62563711 64.77709961 23.29589844 C63.92978906 25.52024261 63.0921587 27.74805786 62.25585938 29.9765625 C61.72190872 31.39083449 61.18742333 32.80490474 60.65234375 34.21875 C60.27576881 35.21859924 60.27576881 35.21859924 59.8915863 36.23864746 C58.11636474 40.88363526 58.11636474 40.88363526 57 42 C55.14712498 42.07226502 53.29166122 42.0838122 51.4375 42.0625 C50.42558594 42.05347656 49.41367188 42.04445312 48.37109375 42.03515625 C47.19740234 42.01775391 47.19740234 42.01775391 46 42 C45.7326001 41.27820557 45.4652002 40.55641113 45.18969727 39.81274414 C43.98346407 36.56160355 42.77304056 33.31203908 41.5625 30.0625 C41.14162109 28.92619141 40.72074219 27.78988281 40.28710938 26.61914062 C39.88427734 25.53955078 39.48144531 24.45996094 39.06640625 23.34765625 C38.69459229 22.34742432 38.32277832 21.34719238 37.93969727 20.31665039 C37.20602925 18.07620783 37.20602925 18.07620783 36 17 C35.7326001 17.72179443 35.4652002 18.44358887 35.18969727 19.18725586 C33.98346407 22.43839645 32.77304056 25.68796092 31.5625 28.9375 C31.14162109 30.07380859 30.72074219 31.21011719 30.28710938 32.38085938 C29.88427734 33.46044922 29.48144531 34.54003906 29.06640625 35.65234375 C28.69459229 36.65257568 28.32277832 37.65280762 27.93969727 38.68334961 C27 41 27 41 26 42 C22.66672158 42.1424478 19.33546107 42.04222103 16 42 C12.27949258 33.1700502 8.69829124 24.2902536 5.1875 15.375 C4.68035913 14.09764807 4.17319777 12.82030429 3.66601562 11.54296875 C3.19228516 10.34027344 2.71855469 9.13757813 2.23046875 7.8984375 C1.80145264 6.81224121 1.37243652 5.72604492 0.93041992 4.60693359 C0 2 0 2 0 0 Z " fill="#003265" transform="translate(126,13)"/>
<path d="M0 0 C5.17965943 4.94096545 8.10030828 9.47755573 8.6875 16.6875 C8.77386719 17.66074219 8.86023438 18.63398437 8.94921875 19.63671875 C8.96597656 20.41660156 8.98273438 21.19648437 9 22 C7.14034925 23.85965075 4.05110881 23.24087549 1.55859375 23.31640625 C-0.39916992 23.37924805 -0.39916992 23.37924805 -2.39648438 23.44335938 C-3.7851533 23.48317608 -5.17382522 23.52288825 -6.5625 23.5625 C-7.95509183 23.60567989 -9.34767028 23.649294 -10.74023438 23.69335938 C-14.16004801 23.79985876 -17.57993763 23.90186923 -21 24 C-18.62370911 28.14670039 -18.62370911 28.14670039 -15 31 C-8.43804138 31.81523315 -4.42484731 30.69351306 1 27 C2.98 28.65 4.96 30.3 7 32 C5.15363601 36.67080188 2.25753183 37.95637238 -2.140625 40.015625 C-7.98769672 42.02855133 -14.09010145 42.00874564 -19.875 39.75 C-26.04883576 36.29265197 -30.01235868 32.90891366 -32 26 C-32.80383712 19.03341166 -33.12813562 11.86458237 -29.40625 5.68359375 C-21.79670194 -3.42672628 -10.47280301 -6.12560176 0 0 Z M-20 10 C-20.33 11.32 -20.66 12.64 -21 14 C-14.73 14 -8.46 14 -2 14 C-4.33848142 8.08268982 -4.33848142 8.08268982 -8 6 C-13.44422452 5.39508616 -16.20066614 5.97717592 -20 10 Z " fill="#003265" transform="translate(87,15)"/>
<path d="M0 0 C3.3 0 6.6 0 10 0 C10.33 9.9 10.66 19.8 11 30 C14.15642206 25.57313753 14.15642206 25.57313753 17.31176758 21.14550781 C18.14875171 19.97268105 18.9930225 18.80503331 19.84301758 17.64160156 C21.10424632 15.91028388 21.10424632 15.91028388 22.375 13.5625 C24 12 24 12 27.35546875 11.609375 C28.62003906 11.65578125 29.88460938 11.7021875 31.1875 11.75 C33.09595703 11.80414062 33.09595703 11.80414062 35.04296875 11.859375 C36.01878906 11.90578125 36.99460937 11.9521875 38 12 C34.07628229 18.3805136 30.10725697 24.35006941 25.08984375 29.9296875 C23.74866569 31.9539562 23.74866569 31.9539562 24.43359375 34.2421875 C26.66716467 38.17460911 29.35761423 41.68000815 32.125 45.25 C33.23378218 46.6911631 34.34066429 48.13379078 35.4453125 49.578125 C35.93531738 50.21137695 36.42532227 50.84462891 36.93017578 51.49707031 C38 53 38 53 38 54 C33.11251394 54.82397099 28.85900608 55.09264696 24 54 C19.59816259 50.65923566 16.85084776 45.63752838 14 41 C13.01 39.68 12.02 38.36 11 37 C10.67 42.61 10.34 48.22 10 54 C6.7 54 3.4 54 0 54 C0 36.18 0 18.36 0 0 Z " fill="#003266" transform="translate(278,1)"/>
<path d="M0 0 C6.08613323 3.15879846 9.05395044 7.53487977 11.49609375 13.84375 C12.47292711 21.90262521 11.23661916 27.62254629 7.18359375 34.59375 C2.0289475 39.48405541 -3.73946313 42.19772663 -10.87890625 42.40625 C-18.24364606 41.99133508 -23.07075518 40.54734067 -28.12890625 35.03125 C-32.93918928 29.32603059 -33.71008498 24.22371781 -33.56640625 16.9140625 C-32.94295671 10.91336064 -30.65131582 7.30365957 -26.44140625 3.09375 C-17.99882503 -2.70017829 -9.4998329 -4.12870001 0 0 Z M-19.25390625 9.90625 C-21.89556103 12.66763985 -23.14862616 15.3691607 -23.41015625 19.1875 C-23.07859304 24.16094818 -22.03307455 27.44201239 -18.25390625 30.90625 C-14.69150727 33.0832716 -11.38591539 33.31039572 -7.2578125 32.62890625 C-3.34374798 31.2174015 -1.11415905 28.55207391 0.74609375 24.90625 C1.80862482 20.19024673 1.20675214 16.86300204 -0.87890625 12.53125 C-3.49649656 9.63812387 -5.62493072 8.29607042 -9.25390625 6.90625 C-13.09573229 6.90625 -16.04551124 7.86189853 -19.25390625 9.90625 Z " fill="#003365" transform="translate(231.25390625,14.09375)"/>
<path d="M0 0 C3.63 0 7.26 0 11 0 C11 3.96 11 7.92 11 12 C14.63 12 18.26 12 22 12 C22 14.97 22 17.94 22 21 C18.37 21 14.74 21 11 21 C11.14011038 24.81279106 11.28680438 28.62512562 11.4375 32.4375 C11.47681641 33.52611328 11.51613281 34.61472656 11.55664062 35.73632812 C11.61948242 37.28803711 11.61948242 37.28803711 11.68359375 38.87109375 C11.72025146 39.82943115 11.75690918 40.78776855 11.79467773 41.77514648 C11.75834424 43.97138925 11.75834424 43.97138925 13 45 C14.51928038 45.07179964 16.04167482 45.08392007 17.5625 45.0625 C18.38878906 45.05347656 19.21507813 45.04445312 20.06640625 45.03515625 C20.70449219 45.02355469 21.34257813 45.01195312 22 45 C22 47.64 22 50.28 22 53 C17.44152128 55.64244379 13.14718892 55.55059071 8 55 C4.31376989 53.38727433 3.24645 52.369675 1 49 C-0.47500269 44.10136186 -0.12556969 38.95228569 -0.09765625 33.88671875 C-0.0962413 32.91716751 -0.09482635 31.94761627 -0.09336853 30.94868469 C-0.08778513 27.86159133 -0.07523564 24.77457133 -0.0625 21.6875 C-0.05748286 19.59049584 -0.05292032 17.49349054 -0.04882812 15.39648438 C-0.03782112 10.26429479 -0.02056788 5.13215982 0 0 Z " fill="#003266" transform="translate(100,1)"/>
<path d="M0 0 C0 3.63 0 7.26 0 11 C-1.258125 11.433125 -2.51625 11.86625 -3.8125 12.3125 C-6.93447993 13.38727998 -8.92210805 14.39816968 -11 17 C-12.59593628 20.44860534 -13.27465151 23.29469942 -13.4140625 27.08203125 C-13.47207031 28.47905273 -13.47207031 28.47905273 -13.53125 29.90429688 C-13.5621875 30.86400391 -13.593125 31.82371094 -13.625 32.8125 C-13.68300781 34.28106445 -13.68300781 34.28106445 -13.7421875 35.77929688 C-13.83610371 38.1858998 -13.91912564 40.59292351 -14 43 C-17.63 43 -21.26 43 -25 43 C-25 29.14 -25 15.28 -25 1 C-21.37 1 -17.74 1 -14 1 C-13.67 2.65 -13.34 4.3 -13 6 C-12.071875 5.195625 -11.14375 4.39125 -10.1875 3.5625 C-6.8033341 0.62955622 -4.60165874 0 0 0 Z " fill="#003266" transform="translate(272,12)"/>
<path d="M0 0 C4.74039218 -1.15133963 9.40058612 -1.92415224 14 0 C20.08158601 5.33258418 27.36473243 14.69960032 28 23 C25.23179933 29.74005969 18.83022603 39.92280641 11.95849609 42.87792969 C7.85103388 43.62256318 3.99933725 43.03934144 0 42 C4.30036626 35.0070032 8.82232736 28.37373076 14 22 C11.21823095 16.94341982 8.16114988 12.27566655 4.75 7.625 C0 1.12710674 0 1.12710674 0 0 Z " fill="#FF6666" transform="translate(327,13)"/>
<path d="M0 0 C2.27024968 -0.08097324 4.54132075 -0.13917704 6.8125 -0.1875 C8.07707031 -0.22230469 9.34164062 -0.25710937 10.64453125 -0.29296875 C14 0 14 0 15.9375 1.21875 C17.31013617 3.51993417 17.30323303 5.02564028 17.1875 7.6875 C17.16042969 8.49574219 17.13335937 9.30398437 17.10546875 10.13671875 C17.05326172 11.05904297 17.05326172 11.05904297 17 12 C16.01 12 15.02 12 14 12 C14 9.03 14 6.06 14 3 C12.68 3 11.36 3 10 3 C10 5.97 10 8.94 10 12 C9.01 12 8.02 12 7 12 C6.67 9.36 6.34 6.72 6 4 C5.01 3.67 4.02 3.34 3 3 C2.67 5.97 2.34 8.94 2 12 C1.34 12 0.68 12 0 12 C0 8.04 0 4.08 0 0 Z " fill="#003265" transform="translate(168,78)"/>
<path d="M0 0 C2.01822917 0.06510417 4.03645833 0.13020833 6.0546875 0.1953125 C6.3846875 1.1853125 6.7146875 2.1753125 7.0546875 3.1953125 C4.7446875 3.1953125 2.4346875 3.1953125 0.0546875 3.1953125 C-0.2753125 3.8553125 -0.6053125 4.5153125 -0.9453125 5.1953125 C0.75625 5.659375 0.75625 5.659375 2.4921875 6.1328125 C6.0546875 7.1953125 6.0546875 7.1953125 7.0546875 8.1953125 C7.2421875 10.6328125 7.2421875 10.6328125 7.0546875 13.1953125 C5.0546875 15.1953125 5.0546875 15.1953125 2.1171875 15.4453125 C-0.9453125 15.1953125 -0.9453125 15.1953125 -3.9453125 13.1953125 C-3.9453125 12.5353125 -3.9453125 11.8753125 -3.9453125 11.1953125 C-1.3053125 11.1953125 1.3346875 11.1953125 4.0546875 11.1953125 C1.3004923 9.19959841 1.3004923 9.19959841 -1.0703125 8.3828125 C-2.9453125 7.1953125 -2.9453125 7.1953125 -3.8203125 4.6953125 C-3.8615625 3.8703125 -3.9028125 3.0453125 -3.9453125 2.1953125 C-1.9453125 0.1953125 -1.9453125 0.1953125 0 0 Z " fill="#003162" transform="translate(228.9453125,74.8046875)"/>
<path d="M0 0 C2.3431213 0.25561323 4.67843403 0.59270772 7 1 C8.20272819 3.40545638 8.10071472 4.94996953 8.0625 7.625 C8.05347656 8.44226563 8.04445313 9.25953125 8.03515625 10.1015625 C8.02355469 10.72804688 8.01195313 11.35453125 8 12 C0.25 12.125 0.25 12.125 -2 11 C-2.1875 8.625 -2.1875 8.625 -2 6 C-1.01 5.34 -0.02 4.68 1 4 C0.34 3.67 -0.32 3.34 -1 3 C-0.67 2.01 -0.34 1.02 0 0 Z M1 7 C0.67 7.66 0.34 8.32 0 9 C0.99 9.33 1.98 9.66 3 10 C3.66 9.67 4.32 9.34 5 9 C5 8.34 5 7.68 5 7 C3.68 7 2.36 7 1 7 Z " fill="#003366" transform="translate(60,78)"/>
<path d="M0 0 C1 1 1 1 1.09765625 3.28515625 C1.08605469 4.20167969 1.07445313 5.11820312 1.0625 6.0625 C1.05347656 6.98160156 1.04445313 7.90070313 1.03515625 8.84765625 C1.02355469 9.55792969 1.01195313 10.26820312 1 11 C-5.0546875 11.1953125 -5.0546875 11.1953125 -7 11 C-7.66 10.34 -8.32 9.68 -9 9 C-8.75 6.4375 -8.75 6.4375 -8 4 C-7.34 3.67 -6.68 3.34 -6 3 C-6.66 2.67 -7.32 2.34 -8 2 C-8 1.34 -8 0.68 -8 0 C-5.11795733 -1.44102133 -3.08226581 -0.65580124 0 0 Z M-6 6 C-5.67 6.99 -5.34 7.98 -5 9 C-4.01 8.67 -3.02 8.34 -2 8 C-2 7.34 -2 6.68 -2 6 C-3.32 6 -4.64 6 -6 6 Z " fill="#003265" transform="translate(117,79)"/>
<path d="M0 0 C2 2 2 2 2.1953125 4.3828125 C2.17210937 5.28773437 2.14890625 6.19265625 2.125 7.125 C2.10695312 8.03507812 2.08890625 8.94515625 2.0703125 9.8828125 C2.04710937 10.58148438 2.02390625 11.28015625 2 12 C-4.0546875 12.1953125 -4.0546875 12.1953125 -6 12 C-6.66 11.34 -7.32 10.68 -8 10 C-7.75 7.4375 -7.75 7.4375 -7 5 C-6.34 4.67 -5.68 4.34 -5 4 C-5.66 3.67 -6.32 3.34 -7 3 C-7 2.34 -7 1.68 -7 1 C-4.48718205 -0.25640898 -2.78302919 -0.20872719 0 0 Z M-5 7 C-4.67 7.99 -4.34 8.98 -4 10 C-2.68 9.34 -1.36 8.68 0 8 C0 7.67 0 7.34 0 7 C-1.65 7 -3.3 7 -5 7 Z " fill="#003264" transform="translate(152,78)"/>
<path d="M0 0 C0.928125 0.20625 1.85625 0.4125 2.8125 0.625 C3.1425 2.605 3.4725 4.585 3.8125 6.625 C1.5025 6.955 -0.8075 7.285 -3.1875 7.625 C-0.1875 8.95833333 -0.1875 8.95833333 2.8125 7.625 C2.8125 8.615 2.8125 9.605 2.8125 10.625 C2.4825 10.955 2.1525 11.285 1.8125 11.625 C-1.625 11.375 -1.625 11.375 -5.1875 10.625 C-7.1875 7.625 -7.1875 7.625 -7 4.5625 C-5.82097774 0.29988107 -4.35260106 -0.51207071 0 0 Z M-3.1875 2.625 C-3.5175 3.285 -3.8475 3.945 -4.1875 4.625 C-2.5375 4.625 -0.8875 4.625 0.8125 4.625 C0.8125 3.965 0.8125 3.305 0.8125 2.625 C-0.5075 2.625 -1.8275 2.625 -3.1875 2.625 Z " fill="#003264" transform="translate(193.1875,78.375)"/>
<path d="M0 0 C8.75 -0.125 8.75 -0.125 11 1 C11.1875 4.375 11.1875 4.375 11 8 C7.5647952 10.29013653 6.014669 10.17842973 2 10 C2 11.65 2 13.3 2 15 C1.34 15 0.68 15 0 15 C0 10.05 0 5.1 0 0 Z M2 2 C2 3.65 2 5.3 2 7 C3.98 7 5.96 7 8 7 C8 5.68 8 4.36 8 3 C6.93354885 1.70366379 6.93354885 1.70366379 4.4375 1.9375 C3.633125 1.958125 2.82875 1.97875 2 2 Z " fill="#003265" transform="translate(132,75)"/>
<path d="M0 0 C0.33 1.98 0.66 3.96 1 6 C-1.31 6.33 -3.62 6.66 -6 7 C-3 8.33333333 -3 8.33333333 0 7 C0 7.99 0 8.98 0 10 C-0.33 10.33 -0.66 10.66 -1 11 C-3.33944736 10.71269945 -5.6739143 10.38063221 -8 10 C-10.20100503 4.61976549 -10.20100503 4.61976549 -9.25 1.6875 C-6.57545578 -1.9231347 -4.02327846 -0.78716318 0 0 Z M-6 2 C-6.33 2.66 -6.66 3.32 -7 4 C-5.35 4 -3.7 4 -2 4 C-2 3.34 -2 2.68 -2 2 C-3.32 2 -4.64 2 -6 2 Z " fill="#003163" transform="translate(35,79)"/>
<path d="M0 0 C2.14373717 5.24024641 2.14373717 5.24024641 1.5625 8.3125 C0 10 0 10 -3.4375 10.9375 C-7 11 -7 11 -8.9375 9.9375 C-10.47555213 7.13281671 -10.39310741 5.14485925 -10 2 C-7.64463991 -2.2950684 -4.23605512 -0.87918125 0 0 Z M-6 2 C-6.66 3.32 -7.32 4.64 -8 6 C-7.01 6.99 -6.02 7.98 -5 9 C-3.68 8.34 -2.36 7.68 -1 7 C-1.33 5.35 -1.66 3.7 -2 2 C-3.32 2 -4.64 2 -6 2 Z " fill="#003064" transform="translate(93,79)"/>
<path d="M0 0 C1.52150158 3.04300316 1.23899393 5.654085 1 9 C-2 11 -2 11 -5.625 10.6875 C-9 10 -9 10 -10 9 C-10.45506692 2.85659656 -10.45506692 2.85659656 -8.9375 0 C-5.80758074 -1.6154422 -3.31825907 -0.79884015 0 0 Z M-7 2 C-7.77242269 3.83700789 -7.77242269 3.83700789 -8 6 C-6.64555699 7.77190909 -6.64555699 7.77190909 -5 9 C-4.01 8.67 -3.02 8.34 -2 8 C-1.16666667 6.08333333 -1.16666667 6.08333333 -1 4 C-1.33 3.34 -1.66 2.68 -2 2 C-3.65 2 -5.3 2 -7 2 Z " fill="#003162" transform="translate(248,79)"/>
<path d="M0 0 C0.99 0 1.98 0 3 0 C4.4606285 2.64738916 5 3.89448334 5 7 C5.66 7 6.32 7 7 7 C7.33 5.02 7.66 3.04 8 1 C8.99 0.67 9.98 0.34 11 0 C10.4848418 5.15158199 9.054993 9.7893353 6 14 C3.25 15 3.25 15 1 15 C1 14.01 1 13.02 1 12 C1.99 12 2.98 12 4 12 C3.566875 10.95199219 3.566875 10.95199219 3.125 9.8828125 C2.75375 8.97273438 2.3825 8.06265625 2 7.125 C1.62875 6.22007813 1.2575 5.31515625 0.875 4.3828125 C0 2 0 2 0 0 Z " fill="#003263" transform="translate(155,78)"/>
<path d="M0 0 C1.39935013 2.79870027 1.25265405 4.90498792 1 8 C-0.0625 9.9375 -0.0625 9.9375 -2 11 C-8.44444444 10.55555556 -8.44444444 10.55555556 -10 9 C-10.45506692 2.85659656 -10.45506692 2.85659656 -8.9375 0 C-5.80758074 -1.6154422 -3.31825907 -0.79884015 0 0 Z M-7 2 C-7.77242269 3.83700789 -7.77242269 3.83700789 -8 6 C-6.64555699 7.77190909 -6.64555699 7.77190909 -5 9 C-4.01 8.67 -3.02 8.34 -2 8 C-1.16666667 6.08333333 -1.16666667 6.08333333 -1 4 C-1.33 3.34 -1.66 2.68 -2 2 C-3.65 2 -5.3 2 -7 2 Z " fill="#003163" transform="translate(292,79)"/>
<path d="M0 0 C6.0546875 -0.1953125 6.0546875 -0.1953125 8 0 C10 2 10 2 10.1953125 4.3828125 C10.17210937 5.28773437 10.14890625 6.19265625 10.125 7.125 C10.10695313 8.03507812 10.08890625 8.94515625 10.0703125 9.8828125 C10.04710937 10.58148438 10.02390625 11.28015625 10 12 C9.01 12 8.02 12 7 12 C7 9.03 7 6.06 7 3 C5.68 3 4.36 3 3 3 C2.67 5.97 2.34 8.94 2 12 C1.34 12 0.68 12 0 12 C0 8.04 0 4.08 0 0 Z " fill="#003163" transform="translate(6,78)"/>
<path d="M0 0 C6.0546875 -0.1953125 6.0546875 -0.1953125 8 0 C10 2 10 2 10.1953125 4.3828125 C10.17210937 5.28773437 10.14890625 6.19265625 10.125 7.125 C10.10695313 8.03507812 10.08890625 8.94515625 10.0703125 9.8828125 C10.04710937 10.58148438 10.02390625 11.28015625 10 12 C9.34 12 8.68 12 8 12 C7.67 9.36 7.34 6.72 7 4 C6.01 4 5.02 4 4 4 C3.67 6.64 3.34 9.28 3 12 C2.01 12 1.02 12 0 12 C0 8.04 0 4.08 0 0 Z " fill="#003266" transform="translate(295,78)"/>
<path d="M0 0 C6.0546875 -0.1953125 6.0546875 -0.1953125 8 0 C10 2 10 2 10.1953125 4.3828125 C10.17210937 5.28773437 10.14890625 6.19265625 10.125 7.125 C10.10695312 8.03507812 10.08890625 8.94515625 10.0703125 9.8828125 C10.04710937 10.58148438 10.02390625 11.28015625 10 12 C9.01 12 8.02 12 7 12 C7 9.03 7 6.06 7 3 C5.68 3 4.36 3 3 3 C2.67 5.97 2.34 8.94 2 12 C1.34 12 0.68 12 0 12 C0 8.04 0 4.08 0 0 Z " fill="#003265" transform="translate(199,78)"/>
<path d="M0 0 C6.0546875 -0.1953125 6.0546875 -0.1953125 8 0 C10 2 10 2 10.1953125 4.3828125 C10.17210938 5.28773437 10.14890625 6.19265625 10.125 7.125 C10.10695313 8.03507812 10.08890625 8.94515625 10.0703125 9.8828125 C10.04710938 10.58148438 10.02390625 11.28015625 10 12 C9.34 12 8.68 12 8 12 C7.67 9.36 7.34 6.72 7 4 C6.01 4 5.02 4 4 4 C3.67 6.64 3.34 9.28 3 12 C2.01 12 1.02 12 0 12 C0 8.04 0 4.08 0 0 Z " fill="#003366" transform="translate(96,78)"/>
<path d="M0 0 C6.0546875 -0.1953125 6.0546875 -0.1953125 8 0 C10 2 10 2 10.1953125 4.3828125 C10.17210937 5.28773437 10.14890625 6.19265625 10.125 7.125 C10.10695313 8.03507812 10.08890625 8.94515625 10.0703125 9.8828125 C10.04710937 10.58148438 10.02390625 11.28015625 10 12 C9.34 12 8.68 12 8 12 C7.67 9.36 7.34 6.72 7 4 C5.68 3.67 4.36 3.34 3 3 C3 5.97 3 8.94 3 12 C2.01 12 1.02 12 0 12 C0 8.04 0 4.08 0 0 Z " fill="#003365" transform="translate(46,78)"/>
<path d="M0 0 C0.99 0 1.98 0 3 0 C3 2.97 3 5.94 3 9 C4.32 8.67 5.64 8.34 7 8 C7.33 5.36 7.66 2.72 8 0 C8.66 0 9.32 0 10 0 C10 3.96 10 7.92 10 12 C8.72125 12.061875 7.4425 12.12375 6.125 12.1875 C5.40570313 12.22230469 4.68640625 12.25710937 3.9453125 12.29296875 C3.30335938 12.19628906 2.66140625 12.09960938 2 12 C-0.13586678 8.79619983 -0.23132175 7.98060033 -0.125 4.3125 C-0.10695312 3.50425781 -0.08890625 2.69601563 -0.0703125 1.86328125 C-0.04710937 1.24839844 -0.02390625 0.63351563 0 0 Z " fill="#003264" transform="translate(256,78)"/>
<path d="M0 0 C2.00720923 0.28674418 4.0085944 0.61866701 6 1 C6 1.66 6 2.32 6 3 C4.68 3.33 3.36 3.66 2 4 C3.65 4.99 5.3 5.98 7 7 C6.125 10.875 6.125 10.875 5 12 C2.66055264 11.71269945 0.3260857 11.38063221 -2 11 C-2 10.01 -2 9.02 -2 8 C0.475 8.495 0.475 8.495 3 9 C1.35 7.68 -0.3 6.36 -2 5 C-1.125 1.125 -1.125 1.125 0 0 Z " fill="#003366" transform="translate(309,78)"/>
<path d="M0 0 C0.99 0 1.98 0 3 0 C3 0.99 3 1.98 3 3 C3.99 3 4.98 3 6 3 C6 3.99 6 4.98 6 6 C5.01 6 4.02 6 3 6 C3 7.98 3 9.96 3 12 C3.99 12 4.98 12 6 12 C6 12.99 6 13.98 6 15 C4.35 14.67 2.7 14.34 1 14 C-0.512545 8.83955235 -1.33500455 5.34001821 0 0 Z " fill="#003266" transform="translate(269,75)"/>
<path d="M0 0 C0.66 0 1.32 0 2 0 C2 0.99 2 1.98 2 3 C3.32 3 4.64 3 6 3 C6 3.99 6 4.98 6 6 C4.68 6 3.36 6 2 6 C2 7.98 2 9.96 2 12 C3.32 12 4.64 12 6 12 C5.67 12.99 5.34 13.98 5 15 C3.35 14.67 1.7 14.34 0 14 C0 11.36 0 8.72 0 6 C-0.66 6 -1.32 6 -2 6 C-2 5.01 -2 4.02 -2 3 C-1.34 3 -0.68 3 0 3 C0 2.01 0 1.02 0 0 Z " fill="#003366" transform="translate(212,75)"/>
<path d="M0 0 C0.66 0 1.32 0 2 0 C2 0.99 2 1.98 2 3 C3.32 3 4.64 3 6 3 C6 3.99 6 4.98 6 6 C4.68 6 3.36 6 2 6 C2 7.98 2 9.96 2 12 C3.32 12 4.64 12 6 12 C5.67 12.99 5.34 13.98 5 15 C3.35 14.67 1.7 14.34 0 14 C0 11.36 0 8.72 0 6 C-0.66 6 -1.32 6 -2 6 C-2 5.01 -2 4.02 -2 3 C-1.34 3 -0.68 3 0 3 C0 2.01 0 1.02 0 0 Z " fill="#003365" transform="translate(19,75)"/>
<path d="M0 0 C0.66 0 1.32 0 2 0 C2 0.99 2 1.98 2 3 C2.99 3 3.98 3 5 3 C5 3.99 5 4.98 5 6 C4.01 6 3.02 6 2 6 C2 7.98 2 9.96 2 12 C2.99 12 3.98 12 5 12 C5 12.99 5 13.98 5 15 C3.35 14.67 1.7 14.34 0 14 C0 11.36 0 8.72 0 6 C-0.66 6 -1.32 6 -2 6 C-2 5.01 -2 4.02 -2 3 C-1.34 3 -0.68 3 0 3 C0 2.01 0 1.02 0 0 Z " fill="#003365" transform="translate(71,75)"/>
<path d="M0 0 C2.31 0 4.62 0 7 0 C7 0.99 7 1.98 7 3 C6.01 3.33 5.02 3.66 4 4 C3.67 6.64 3.34 9.28 3 12 C2.01 12 1.02 12 0 12 C0 8.04 0 4.08 0 0 Z " fill="#003063" transform="translate(38,78)"/>
<path d="M0 0 C0.99 0 1.98 0 3 0 C3 4.95 3 9.9 3 15 C2.01 15 1.02 15 0 15 C0 10.05 0 5.1 0 0 Z " fill="#003365" transform="translate(251,75)"/>
<path d="M0 0 C0.99 0 1.98 0 3 0 C3 4.95 3 9.9 3 15 C2.01 14.67 1.02 14.34 0 14 C0 9.38 0 4.76 0 0 Z " fill="#00226B" transform="translate(120,75)"/>
<path d="M0 0 C0.99 0 1.98 0 3 0 C3 3.96 3 7.92 3 12 C2.01 12 1.02 12 0 12 C0 8.04 0 4.08 0 0 Z " fill="#003266" transform="translate(277,78)"/>
<path d="M0 0 C0.99 0 1.98 0 3 0 C3 3.96 3 7.92 3 12 C2.01 12 1.02 12 0 12 C0 8.04 0 4.08 0 0 Z " fill="#003166" transform="translate(78,78)"/>
<path d="M0 0 C0.66 0 1.32 0 2 0 C2 4.95 2 9.9 2 15 C1.34 15 0.68 15 0 15 C0 10.05 0 5.1 0 0 Z " fill="#003365" transform="translate(1,75)"/>
<path d="M0 0 C0.99 0 1.98 0 3 0 C3 0.66 3 1.32 3 2 C2.01 2 1.02 2 0 2 C0 1.34 0 0.68 0 0 Z " fill="#003366" transform="translate(277,75)"/>
<path d="M0 0 C0.99 0 1.98 0 3 0 C3 0.66 3 1.32 3 2 C2.01 2 1.02 2 0 2 C0 1.34 0 0.68 0 0 Z " fill="#003366" transform="translate(78,75)"/>
</svg>
