
        <svg xmlns="http://www.w3.org/2000/svg" xmlns:xlink="http://www.w3.org/1999/xlink" version="1.1" width="3155.844155844156" 
        height="637.8119897710432" viewBox="-116.88311688311688 0 3155.844155844156 637.8119897710432">
			
			<g transform="scale(7.792207792207792) translate(10, 10)">
				<defs id="SvgjsDefs8348"><linearGradient id="SvgjsLinearGradient8353"><stop id="SvgjsStop8354" stop-color="#ef4136" offset="0"></stop><stop id="SvgjsStop8355" stop-color="#fbb040" offset="1"></stop></linearGradient></defs><g id="SvgjsG8349" featureKey="5TMTKC-0" transform="matrix(1.6065573770491801,0,0,1.6065573770491801,-17.40983606557377,-20.48357744685939)" fill="url(#SvgjsLinearGradient8353)"><title xmlns="http://www.w3.org/2000/svg">blackhole</title><g xmlns="http://www.w3.org/2000/svg" data-name="Layer 39"><path d="M9.19727,27.44825a23.52853,23.52853,0,0,1,.583-2.30371.25358.25358,0,0,1,.3125-.166.25037.25037,0,0,1,.166.3125,22.68314,22.68314,0,0,0-.5713,2.25488.24953.24953,0,0,1-.24511.20117.28538.28538,0,0,1-.04883-.00488A.24937.24937,0,0,1,9.19727,27.44825Zm2.124-5.26465a.24909.24909,0,0,0,.22461-.14062c.14453-.2959.29687-.58887.4541-.877a.25042.25042,0,1,0-.43945-.24024q-.24171.44385-.46387.89844a.24977.24977,0,0,0,.11523.334A.24252.24252,0,0,0,11.32129,22.1836Zm.24805,19.81934a.25025.25025,0,0,0-.44922.2207q.22411.45264.46484.89649a.25042.25042,0,1,0,.43945-.24024Q11.78711,42.44777,11.56934,42.00294ZM9.39941,36.28321a.24986.24986,0,0,0-.19628.294A23.20625,23.20625,0,0,0,9.794,38.89454a.24927.24927,0,0,0,.23828.17578.24511.24511,0,0,0,.07422-.01172.24887.24887,0,0,0,.16406-.3125,23.06317,23.06317,0,0,1-.57715-2.2666A.24985.24985,0,0,0,9.39941,36.28321Zm45.20313-.00683a.2472.2472,0,0,0-.29395.19629,22.7107,22.7107,0,0,1-.57714,2.26562.25166.25166,0,0,0,.165.31348.27863.27863,0,0,0,.07422.01074.25046.25046,0,0,0,.23926-.17578,23.65966,23.65966,0,0,0,.58887-2.31641A.24987.24987,0,0,0,54.60254,36.27638Zm-2.17188,5.72656q-.21825.44385-.45507.877a.25042.25042,0,0,0,.43945.24024q.24024-.44385.46484-.89649a.25025.25025,0,1,0-.44922-.2207Zm0-20.00586a.2503.2503,0,0,0,.22461.13965.24655.24655,0,0,0,.11036-.02539.25079.25079,0,0,0,.11425-.335q-.22412-.45264-.46484-.89649a.25042.25042,0,1,0-.43945.24024Q52.21289,21.55225,52.43066,21.99708Zm2.1211,5.72461a.28538.28538,0,0,0,.04883-.00488.24988.24988,0,0,0,.19629-.29395,23.20629,23.20629,0,0,0-.59083-2.31738.24957.24957,0,0,0-.47656.14844,23.06317,23.06317,0,0,1,.57715,2.2666A.24955.24955,0,0,0,54.55176,27.72169ZM15.06249,23.64747a.24925.24925,0,0,0,.22267-.13672,19.04694,19.04694,0,0,1,.98144-1.69922.25.25,0,1,0-.41992-.27148,19.53427,19.53427,0,0,0-1.00684,1.74414.25014.25014,0,0,0,.22265.36328Zm2.80665-4.08594a.25232.25232,0,0,0,.18652-.083,18.56779,18.56779,0,0,1,1.38379-1.38868.25028.25028,0,0,0-.33593-.37109,19.575,19.575,0,0,0-1.4209,1.42578.25.25,0,0,0,.18652.417ZM21.62988,16.333a.24332.24332,0,0,0,.13672-.041,18.66417,18.66417,0,0,1,1.69434-.98437.25026.25026,0,1,0-.22852-.44531A19.20847,19.20847,0,0,0,21.49316,15.874a.24994.24994,0,0,0,.13672.459Zm24.27051,3.09277a.2485.2485,0,0,0,.35254.0166.24815.24815,0,0,0,.0166-.35254,19.78111,19.78111,0,0,0-1.42773-1.41992.254.254,0,0,0-.35352.01953.25123.25123,0,0,0,.01953.35352A19.37739,19.37739,0,0,1,45.90039,19.42579Zm2.78223,4.01856a.25026.25026,0,1,0,.44531-.22852,19.31217,19.31217,0,0,0-1.01367-1.73828.24973.24973,0,1,0-.418.27344A18.80627,18.80627,0,0,1,48.68262,23.44435ZM13.35645,28.31544a.24005.24005,0,0,0,.05175.00586.2494.2494,0,0,0,.24414-.19824,18.746,18.746,0,0,1,.50684-1.89453.24953.24953,0,1,0-.47461-.1543,18.66775,18.66775,0,0,0-.52051,1.94531A.249.249,0,0,0,13.35645,28.31544ZM26.09668,14.18751a.23679.23679,0,0,0,.07715-.01269,18.83984,18.83984,0,0,1,1.89355-.50977.24977.24977,0,1,0-.10547-.48828,19.0358,19.0358,0,0,0-1.94238.52344.24982.24982,0,0,0,.07715.4873ZM50.57422,28.24708a.256.256,0,0,0,.05273-.00586.24885.24885,0,0,0,.19141-.29687A18.80759,18.80759,0,0,0,50.293,26.001a.24662.24662,0,0,0-.31543-.15918.24975.24975,0,0,0-.15918.31543,18.43191,18.43191,0,0,1,.51172,1.89258A.24932.24932,0,0,0,50.57422,28.24708ZM31.00586,13.27638h.01269a19.17712,19.17712,0,0,1,1.92481-.00293h.01269a.25016.25016,0,0,0,.0127-.5,19.34619,19.34619,0,0,0-1.96289.00293c-.00684,0-.05078.002-.05762.00293a.23428.23428,0,0,0-.21094.26367A.2664.2664,0,0,0,31.00586,13.27638Zm4.85254.37207a19.07121,19.07121,0,0,1,1.89551.50586.26423.26423,0,0,0,.07714.01172.25018.25018,0,0,0,.07715-.48828,19.2863,19.2863,0,0,0-1.94629-.51758.245.245,0,0,0-.29589.19238A.249.249,0,0,0,35.8584,13.64845Zm6.31348,2.60742a.25006.25006,0,0,0,.3457-.07422.24978.24978,0,0,0-.07422-.3457,19.34371,19.34371,0,0,0-1.74512-1.00488.24982.24982,0,1,0-.22656.44531A18.85906,18.85906,0,0,1,42.17188,16.25587ZM33.06836,50.71876a.82474.82474,0,0,0-.08691.00488,18.80186,18.80186,0,0,1-1.9629.001.26044.26044,0,0,0-.26269.2373.25141.25141,0,0,0,.2373.2627c.32911.0166.66114.02539.99414.02539.3379,0,.67872-.00879,1.01954-.02637.00586-.001.06543-.00488.07129-.00488h.001a.25011.25011,0,0,0-.01074-.5Zm17.582-15.07226a.2539.2539,0,0,0-.29687.19335,18.308,18.308,0,0,1-.50293,1.89551.2516.2516,0,0,0,.16113.31543.2693.2693,0,0,0,.07715.01172.25086.25086,0,0,0,.23828-.17285,19.70687,19.70687,0,0,0,.5166-1.94629A.25087.25087,0,0,0,50.65039,35.6465Zm-37.28418.07519a.249.249,0,0,0-.19238.2959,18.75585,18.75585,0,0,0,.52148,1.94433.24967.24967,0,0,0,.23731.17286.23653.23653,0,0,0,.07715-.0127.24845.24845,0,0,0,.16015-.31445,18.58354,18.58354,0,0,1-.50781-1.89356A.2457.2457,0,0,0,13.36621,35.72169ZM42.26465,47.68751a18.71516,18.71516,0,0,1-1.69141.98828.25026.25026,0,0,0,.22852.44531A19.52675,19.52675,0,0,0,42.54,48.10548a.25027.25027,0,1,0-.27539-.418Zm3.7041-3.19434a18.40683,18.40683,0,0,1-1.38184,1.39258.25029.25029,0,0,0,.33594.3711,19.21656,19.21656,0,0,0,1.419-1.42969.25036.25036,0,1,0-.373-.334Zm2.76367-4.03808a18.84209,18.84209,0,0,1-.97851,1.70117.24957.24957,0,0,0,.07422.3457.25007.25007,0,0,0,.3457-.07421,19.12879,19.12879,0,0,0,1.0039-1.7461.24982.24982,0,1,0-.44531-.22656Zm-10.87207,9.3584a18.431,18.431,0,0,1-1.8916.51367.2499.2499,0,0,0,.05273.49414.24225.24225,0,0,0,.05274-.00586,18.851,18.851,0,0,0,1.94238-.52734.24983.24983,0,1,0-.15625-.47461Zm-19.78418-5.2666a.25028.25028,0,1,0-.37109.33593,19.75375,19.75375,0,0,0,1.4248,1.4209.24963.24963,0,1,0,.334-.37109A19.35539,19.35539,0,0,1,18.07617,44.54689Zm10.0293,5.79687a18.67822,18.67822,0,0,1-1.89356-.50879.24983.24983,0,0,0-.15625.47461A18.70568,18.70568,0,0,0,28.002,50.832a.24021.24021,0,0,0,.05176.00586.24981.24981,0,0,0,.05176-.49414ZM15.29883,40.52247a.25026.25026,0,1,0-.44531.22852,19.06479,19.06479,0,0,0,1.01074,1.74023.24979.24979,0,0,0,.209.11328.24331.24331,0,0,0,.13672-.041.24929.24929,0,0,0,.07227-.34571A18.52125,18.52125,0,0,1,15.29883,40.52247Zm6.49707,7.2002a.25.25,0,0,0-.27149.41992,19.79885,19.79885,0,0,0,1.74219,1.00879.25516.25516,0,0,0,.11426.02734.25007.25007,0,0,0,.11426-.47265A18.83056,18.83056,0,0,1,21.7959,47.72267ZM62.5,32c0,1.09961-.01056,1.71521-14.65814,2.12634a15.98147,15.98147,0,0,1-31.68372,0C1.51056,33.71528,1.5,33.09956,1.5,32c0-1.03613,0-1.50879,9.544-1.94043a6.97851,6.97851,0,0,0,6.17285-4.18066,16.00054,16.00054,0,0,1,29.5664,0A6.9788,6.9788,0,0,0,52.957,30.05958C62.5,30.49122,62.5,30.96388,62.5,32ZM45.81732,34.17518c-.67554.01526-1.35028.03064-2.04028.0437a11.98068,11.98068,0,0,1-23.55408,0c-.69006-.01306-1.36474-.02844-2.04028-.0437a13.98519,13.98519,0,0,0,27.63464,0Zm6.19928-2.1947a8.93949,8.93949,0,0,1-7.081-5.33594,14.00055,14.00055,0,0,0-25.8711,0,8.93949,8.93949,0,0,1-7.08105,5.33594c1.47363.06152,3.16211.11914,5.09277.16992,4.709.11719,9.87012.17969,14.92383.17969s10.21484-.0625,14.9248-.17969C48.85547,32.09962,50.544,32.042,52.0166,31.98048ZM43.57,28.83a11.99515,11.99515,0,0,0-23.14,0l-.04.12a1.0188,1.0188,0,0,0,.15.88,1.03467,1.03467,0,0,0,.79.41c3.52.06,7.11.09,10.67.09s7.15-.03,10.67-.09a1.03467,1.03467,0,0,0,.79-.41,1.0188,1.0188,0,0,0,.15-.88Z"></path></g></g><g id="SvgjsG8350" featureKey="7UBp9i-0" transform="matrix(2.0216282060156856,0,0,2.0216282060156856,116.42313053914074,5.9053364784418445)" fill="#FFFFFF"><path d="M9 7.859999999999999 q-0.26 -0.04 -0.43 -0.24 t-0.17 -0.46 l0 -1.46 q0 -0.34 0.24 -0.54 t0.56 -0.16 q1.72 0.28 3.06 1.22 q1.74 1.26 2.46 3.34 q0.12 0.34 -0.08 0.64 t-0.58 0.3 l-1.6 0 q-0.22 0 -0.4 -0.11 t-0.26 -0.31 q-0.44 -1.04 -1.34 -1.66 q-0.7 -0.44 -1.46 -0.56 z M14.06 14.5 q0.38 0 0.58 0.3 t0.08 0.64 q-0.72 2.08 -2.46 3.34 q-1.34 0.94 -3.06 1.22 l-0.1 0 q-0.28 0 -0.46 -0.18 q-0.24 -0.18 -0.24 -0.52 l0 -1.46 q0 -0.26 0.16 -0.46 t0.42 -0.24 q0.84 -0.12 1.48 -0.56 q0.9 -0.62 1.34 -1.66 q0.08 -0.2 0.26 -0.31 t0.4 -0.11 l1.6 0 z M6.9 5.24 q0.26 0.2 0.26 0.54 l0 1.56 q0 0.22 -0.15 0.41 t-0.37 0.27 q-0.28 0.06 -0.44 0.14 q-0.8 0.36 -1.36 0.98 q-1.14 1.28 -1.14 3.35 t1.14 3.37 q0.7 0.8 1.8 1.12 q0.22 0.06 0.37 0.25 t0.15 0.41 l0 1.58 q0 0.34 -0.26 0.54 q-0.18 0.16 -0.46 0.16 l-0.14 0 q-2.14 -0.46 -3.62 -2.08 q-1.9 -2.14 -1.9 -5.34 t1.9 -5.34 q1.48 -1.64 3.62 -2.06 q0.32 -0.08 0.6 0.14 z M30.503999999999998 5.380000000000001 q0.1 0.18 0.09 0.38 t-0.13 0.36 l-5.54 8 l0 5.14 q0 0.28 -0.21 0.49 t-0.49 0.21 l-1.54 0 q-0.3 0 -0.51 -0.21 t-0.21 -0.49 l0 -5.86 q0 -0.2 0.14 -0.4 l5.34 -7.7 q0.1 -0.14 0.25 -0.22 t0.33 -0.08 l1.86 0 q0.2 0 0.37 0.1 t0.25 0.28 z M22.084 9.78 q-0.08 0.18 -0.25 0.28 t-0.37 0.1 l-1.86 0 q-0.36 0 -0.6 -0.3 l-2.6 -3.74 q-0.1 -0.16 -0.11 -0.36 t0.07 -0.38 t0.25 -0.28 t0.37 -0.1 l1.88 0 q0.34 0 0.58 0.3 l2.6 3.74 q0.1 0.16 0.11 0.36 t-0.07 0.38 z M43.668 12.18 q1.04 0.64 1.52 1.84 q0.28 0.64 0.28 1.58 q0 1.46 -0.78 2.45 t-2.28 1.47 q-0.94 0.32 -2.22 0.32 l-6.38 0 q-0.28 0 -0.49 -0.21 t-0.21 -0.49 l0 -1.44 q0 -0.3 0.21 -0.51 t0.49 -0.21 l6.54 0 q1.16 0 1.72 -0.42 q0.48 -0.4 0.48 -1.09 t-0.5 -1.13 q-0.62 -0.54 -1.86 -0.54 l-6.38 0 q-0.28 0 -0.49 -0.21 t-0.21 -0.51 l0 -1.38 q0 -0.28 0.21 -0.49 t0.49 -0.21 l6.02 0 q0.86 0 1.34 -0.3 q0.34 -0.2 0.54 -0.58 q0.14 -0.28 0.14 -0.65 t-0.1 -0.67 q-0.08 -0.24 -0.28 -0.44 q-0.44 -0.5 -1.46 -0.5 l-6.2 0 q-0.28 0 -0.49 -0.21 t-0.21 -0.51 l0 -1.44 q0 -0.28 0.21 -0.49 t0.49 -0.21 l6.02 0 q2.48 0 3.82 1.4 q1.14 1.14 1.14 2.86 q0 1.84 -1.12 2.92 z M59.372 16.96 q0.3 0 0.5 0.21 t0.2 0.51 l0 1.46 q0 0.28 -0.2 0.49 t-0.5 0.21 l-9.88 0 q-0.28 0 -0.49 -0.21 t-0.21 -0.49 l0 -1.46 q0 -0.3 0.21 -0.51 t0.49 -0.21 l9.88 0 z M49.492 13.86 q-0.28 0 -0.49 -0.21 t-0.21 -0.49 l0 -1.5 q0 -0.28 0.21 -0.49 t0.49 -0.21 l8.98 0 q0.3 0 0.51 0.21 t0.21 0.49 l0 1.5 q0 0.28 -0.21 0.49 t-0.51 0.21 l-8.98 0 z M59.372 5 q0.3 0 0.5 0.21 t0.2 0.49 l0 1.46 q0 0.3 -0.2 0.51 t-0.5 0.21 l-9.88 0 q-0.28 0 -0.49 -0.21 t-0.21 -0.51 l0 -1.46 q0 -0.28 0.21 -0.49 t0.49 -0.21 l9.88 0 z M72.856 14.1 l3.02 4.62 q0.22 0.36 0.02 0.72 q-0.08 0.16 -0.25 0.26 t-0.35 0.1 l-1.82 0 q-0.18 0 -0.34 -0.09 t-0.24 -0.23 l-3.04 -4.82 l-3.56 0 l0 4.44 q0 0.28 -0.21 0.49 t-0.49 0.21 l-1.52 0 q-0.28 0 -0.49 -0.21 t-0.21 -0.49 l0 -6.58 q0 -0.28 0.21 -0.49 t0.49 -0.21 l6.16 0 q1.76 0 2.34 -1 q0.2 -0.32 0.2 -0.92 q0 -0.94 -0.62 -1.48 q-0.64 -0.58 -1.84 -0.58 l-6.24 0 q-0.28 0 -0.49 -0.21 t-0.21 -0.49 l0 -1.44 q0 -0.28 0.21 -0.49 t0.49 -0.21 l6.42 0 q2.34 0 3.74 1.32 q1.46 1.32 1.46 3.58 q0 1.46 -0.64 2.49 t-1.86 1.57 z M96.524 18.82 q0.12 0.16 0.14 0.36 t-0.06 0.38 t-0.26 0.29 t-0.38 0.11 l-1.94 0 q-0.36 0 -0.58 -0.28 l-3.82 -5.06 l-3.82 5.06 q-0.22 0.28 -0.56 0.28 l-1.96 0 q-0.2 0 -0.37 -0.1 t-0.25 -0.28 q-0.2 -0.42 0.06 -0.76 l10.36 -13.54 q0.22 -0.28 0.56 -0.28 l1.94 0 q0.2 0 0.37 0.11 t0.27 0.29 t0.08 0.38 t-0.16 0.36 l-4.7 6.12 z M85.98400000000001 9.88 l-2.88 -3.74 q-0.14 -0.16 -0.16 -0.36 t0.08 -0.38 t0.27 -0.29 t0.37 -0.11 l1.94 0 q0.16 0 0.32 0.07 t0.24 0.21 l2.82 3.74 q0.28 0.34 0.08 0.76 q-0.08 0.18 -0.25 0.28 t-0.39 0.1 l-1.88 0 q-0.16 0 -0.32 -0.07 t-0.24 -0.21 z M111.72800000000001 5.380000000000001 q0.1 0.18 0.09 0.38 t-0.13 0.36 l-5.54 8 l0 5.14 q0 0.28 -0.21 0.49 t-0.49 0.21 l-1.54 0 q-0.3 0 -0.51 -0.21 t-0.21 -0.49 l0 -5.86 q0 -0.2 0.14 -0.4 l5.34 -7.7 q0.1 -0.14 0.25 -0.22 t0.33 -0.08 l1.86 0 q0.2 0 0.37 0.1 t0.25 0.28 z M103.308 9.78 q-0.08 0.18 -0.25 0.28 t-0.37 0.1 l-1.86 0 q-0.36 0 -0.6 -0.3 l-2.6 -3.74 q-0.1 -0.16 -0.11 -0.36 t0.07 -0.38 t0.25 -0.28 t0.37 -0.1 l1.88 0 q0.34 0 0.58 0.3 l2.6 3.74 q0.1 0.16 0.11 0.36 t-0.07 0.38 z M124.73200000000001 17.12 q0.28 0 0.49 0.21 t0.21 0.49 l0 1.44 q0 0.28 -0.21 0.49 t-0.49 0.21 l-10.74 0 q-0.28 0 -0.49 -0.21 t-0.21 -0.49 l0 -1.46 q0 -0.24 0.16 -0.44 l2.86 -3.46 q0.22 -0.26 0.54 -0.26 l1.92 0 q0.2 0 0.38 0.11 t0.27 0.3 t0.06 0.4 t-0.17 0.35 l-1.92 2.32 l7.34 0 z M124.73200000000001 5 q0.28 0 0.49 0.21 t0.21 0.51 l0 1.46 q0 0.26 -0.16 0.46 l-2.86 3.42 q-0.2 0.26 -0.54 0.26 l-1.9 0 q-0.2 0 -0.38 -0.11 t-0.28 -0.29 q-0.16 -0.44 0.1 -0.76 l1.92 -2.3 l-7.2 0 q-0.3 0 -0.51 -0.21 t-0.21 -0.51 l0 -1.42 q0 -0.3 0.21 -0.51 t0.51 -0.21 l10.6 0 z"></path></g>
			</g>
		</svg>
	