<?xml version="1.0" encoding="UTF-8"?>
<svg version="1.1" xmlns="http://www.w3.org/2000/svg" width="244" height="100">
<path d="M0 0 C11 0 11 0 13.43310547 1.82177734 C13.94760254 2.6927002 14.46209961 3.56362305 14.9921875 4.4609375 C15.62479492 5.46737305 16.25740234 6.47380859 16.90917969 7.51074219 C17.24042847 8.06983276 17.57167725 8.62892334 17.91296387 9.20495605 C19.50334832 11.83118888 21.23981523 14.35196055 22.96636963 16.88995361 C25.38209175 20.44863385 27.74896 24.03976104 30.125 27.625 C31.09743664 29.0886876 32.07009178 30.55223005 33.04296875 32.015625 C34.83875227 34.71736887 36.63321468 37.41997973 38.42626953 40.12353516 C41.27849968 44.41946669 44.13964797 48.70947196 47 53 C47.33 35.51 47.66 18.02 48 0 C51.3 0 54.6 0 58 0 C58 23.76 58 47.52 58 72 C46 72 46 72 42.07080078 68.10375977 C40.90234889 66.32737226 39.77922975 64.52060165 38.6953125 62.69140625 C38.08283661 61.73612534 37.47036072 60.78084442 36.83932495 59.7966156 C34.89364946 56.74225487 33.0094293 53.65494005 31.125 50.5625 C29.83726208 48.51640233 28.54563062 46.47274962 27.25 44.43164062 C24.3772672 39.89397364 21.54307646 35.33476474 18.74172974 30.75270081 C16.23342409 26.78847213 13.60217106 22.90325658 11 19 C10.67 36.49 10.34 53.98 10 72 C6.7 72 3.4 72 0 72 C0 48.24 0 24.48 0 0 Z " fill="#1C6333" transform="translate(73,0)"/>
<path d="M0 0 C3.63 0 7.26 0 11 0 C11.01458252 1.49781006 11.02916504 2.99562012 11.04418945 4.53881836 C11.1023976 10.12450386 11.17962931 15.70979573 11.26245117 21.29516602 C11.29559475 23.70721014 11.32365918 26.11932985 11.34643555 28.53149414 C11.38017572 32.00960335 11.43250262 35.48702644 11.48828125 38.96484375 C11.49467117 40.03395493 11.5010611 41.1030661 11.50764465 42.20457458 C11.62838348 48.42859806 12.07154419 54.3842863 15 60 C17.38788787 61.62332335 17.38788787 61.62332335 20 62 C21.485 62.495 21.485 62.495 23 63 C30.26327523 63.65638487 37.16747665 63.85089271 43 59 C46.26546616 52.38284763 46.46833894 46.35550459 46.51171875 39.0625 C46.52966995 37.94182129 46.54762115 36.82114258 46.56611633 35.66650391 C46.62000344 32.11104009 46.6540464 28.55570889 46.6875 25 C46.72069205 22.57940872 46.75518345 20.15883489 46.79101562 17.73828125 C46.87571784 11.82561682 46.94263233 5.91299026 47 0 C50.63 0 54.26 0 58 0 C58.04977132 6.49209501 58.08589429 12.98407671 58.10986328 19.47631836 C58.11986516 21.68076515 58.13347099 23.88519886 58.15087891 26.08959961 C58.17538453 29.27460984 58.18654155 32.4594433 58.1953125 35.64453125 C58.20563507 36.61582474 58.21595764 37.58711823 58.22659302 38.58784485 C58.2280784 47.83221745 57.99581975 58.87385452 51.203125 65.84375 C43.90962567 72.53402758 37.12518296 74.35606083 27.1640625 74.14453125 C18.90824688 73.59315006 12.21653757 71.69531459 6 66 C-2.94804944 54.64383527 -0.23393855 35.68438419 -0.125 22.25 C-0.11495125 20.08854581 -0.10582875 17.9270871 -0.09765625 15.765625 C-0.07579038 10.51030373 -0.04136451 5.25520249 0 0 Z " fill="#1C6333" transform="translate(1,0)"/>
<path d="M0 0 C4.72122429 -1.25178124 8.30829559 -1.4692185 13 0 C17.84830749 4.43110946 21.25445854 10.26195096 24.66064453 15.82519531 C25.84479342 17.74798028 27.08489865 19.6057942 28.37109375 21.4609375 C30 24 30 24 30 26 C30.66 26 31.32 26 32 26 C32.26425781 25.26410645 32.52851563 24.52821289 32.80078125 23.77001953 C33.99694739 21.00705109 35.32074067 19.02862179 37.1875 16.6796875 C37.80367187 15.89722656 38.41984375 15.11476563 39.0546875 14.30859375 C39.69664062 13.50550781 40.33859375 12.70242188 41 11.875 C42.27163259 10.26886164 43.54249863 8.66211601 44.8125 7.0546875 C45.37582031 6.34812012 45.93914062 5.64155273 46.51953125 4.91357422 C47.74771502 3.32608998 48.88664864 1.67002705 50 0 C52.8203125 -0.29296875 52.8203125 -0.29296875 56.125 -0.1875 C57.76855469 -0.14689453 57.76855469 -0.14689453 59.4453125 -0.10546875 C60.70988281 -0.05326172 60.70988281 -0.05326172 62 0 C58.9075519 5.79257069 55.20576976 10.8040476 51.125 15.9375 C49.32801079 18.21561858 47.53307929 20.49487894 45.75097656 22.78466797 C44.57740366 24.26947005 43.37551536 25.7322963 42.14746094 27.17236328 C40.5859852 29.06450969 39.18413605 30.85174917 38 33 C38.10089068 35.69177025 38.10089068 35.69177025 40 38 C40.36963867 38.53044922 40.73927734 39.06089844 41.12011719 39.60742188 C42.49469517 41.52490041 43.92776442 43.38681037 45.375 45.25 C49.94564052 51.23613273 54.40515652 57.28525406 58.75 63.4375 C59.27513184 64.17709961 59.80026367 64.91669922 60.34130859 65.67871094 C64 70.87525552 64 70.87525552 64 72 C59.0301053 73.04476619 54.93731969 73.31526959 50 72 C45.70334028 68.29688863 43.06986856 62.99962153 40.28027344 58.13867188 C38.35083573 54.91558371 36.10985016 51.96674336 33.8125 49 C33.07644531 48.030625 32.34039062 47.06125 31.58203125 46.0625 C30.79892578 45.0415625 30.79892578 45.0415625 30 44 C29.31035156 45.01578125 28.62070313 46.0315625 27.91015625 47.078125 C25.95918104 49.94691836 23.98350138 52.79697749 21.99609375 55.640625 C20.14781051 58.29319432 18.3894565 60.96464468 16.72265625 63.734375 C14.66016905 66.94524893 12.90987126 69.52546381 10 72 C5.4905989 72.96009899 1.52789102 72.75581488 -3 72 C1.26810844 65.42311071 5.82431162 59.11971368 10.5625 52.875 C12.47155405 50.35116583 14.37860374 47.82615846 16.27392578 45.29199219 C17.36975597 43.83687849 18.4810898 42.3932122 19.61279297 40.96582031 C22.2562669 37.86069647 22.2562669 37.86069647 22.77148438 34.03027344 C21.95090533 31.87080023 20.97839293 30.25580479 19.62890625 28.3828125 C19.14131836 27.69960938 18.65373047 27.01640625 18.15136719 26.3125 C17.36487793 25.2296875 17.36487793 25.2296875 16.5625 24.125 C16.02915039 23.37992188 15.49580078 22.63484375 14.94628906 21.8671875 C13.30333794 19.57388124 11.65243998 17.28647562 10 15 C8.52549001 12.95292357 7.05235335 10.90489179 5.58178711 8.85498047 C4.70650131 7.63583813 3.82848579 6.41865012 2.94750977 5.20361328 C0 1.11083067 0 1.11083067 0 0 Z " fill="#1C6333" transform="translate(169,0)"/>
<path d="M0 0 C3.63 0 7.26 0 11 0 C11 23.76 11 47.52 11 72 C7.37 72 3.74 72 0 72 C0 48.24 0 24.48 0 0 Z " fill="#1D6433" transform="translate(147,0)"/>
<path d="M0 0 C2.90186138 1.45093069 3.75431539 2.33314177 4.875 5.375 C5.02383297 8.50049241 4.48309867 10.25626746 3 13 C-0.51824511 15.34549674 -1.85775694 15.57991403 -6 15 C-8.9375 12.9375 -8.9375 12.9375 -11 10 C-11 6.45638757 -10.65850044 4.13408409 -8.875 1.0625 C-5.85228899 -0.65036957 -3.39414695 -0.35727863 0 0 Z M-5 2 C-1 3 -1 3 -1 3 Z M0 4 C-0.67958603 6.39719432 -0.67958603 6.39719432 -1 9 C-0.34 9.66 0.32 10.32 1 11 C2.29633621 9.93354885 2.29633621 9.93354885 2.0625 7.4375 C2.041875 6.633125 2.02125 5.82875 2 5 C1.34 4.67 0.68 4.34 0 4 Z M-8 5 C-8.33 5.99 -8.66 6.98 -9 8 C-8.34 8.66 -7.68 9.32 -7 10 C-7 8.35 -7 6.7 -7 5 C-7.33 5 -7.66 5 -8 5 Z M-4 5 C-3 7 -3 7 -3 7 Z M-4 9 C-4.33 10.32 -4.66 11.64 -5 13 C-3.68 12.67 -2.36 12.34 -1 12 C-1.99 11.01 -2.98 10.02 -4 9 Z " fill="#1B6231" transform="translate(239,7)"/>
<path d="M0 0 C2.83268842 2.36057369 2.98743809 3.88066188 3.375 7.5625 C3 11 3 11 1.9375 12.9375 C-1.11976176 14.6140629 -3.5906288 14.36528977 -7 14 C-8.9375 12.9375 -8.9375 12.9375 -10 11 C-10.50030235 7.06905293 -10.5996142 4.8994213 -8.375 1.5625 C-5.30138841 -0.45961289 -3.61074844 -0.61459548 0 0 Z M-4 2 C-6.28773145 3.81112073 -6.95209822 4.60720543 -7.3125 7.5625 C-7.22966747 10.17796419 -7.22966747 10.17796419 -5 12 C-2.21762345 11.59471099 -2.21762345 11.59471099 0 10 C-0.28730055 7.66055264 -0.61936779 5.3260857 -1 3 C-1.99 2.67 -2.98 2.34 -4 2 Z " fill="#100D0C" transform="translate(75,81)"/>
<path d="M0 0 C0 0.99 0 1.98 0 3 C-2.31 3.66 -4.62 4.32 -7 5 C-6.67 6.98 -6.34 8.96 -6 11 C-4.68 11.33 -3.36 11.66 -2 12 C-2 11.01 -2 10.02 -2 9 C-2.66 9 -3.32 9 -4 9 C-4 8.01 -4 7.02 -4 6 C-2.35 6 -0.7 6 1 6 C1 8.64 1 11.28 1 14 C-7.16221766 14.61601643 -7.16221766 14.61601643 -10.125 12.4375 C-11.39144915 8.90953451 -10.97805885 6.58621578 -10 3 C-7.04030655 -0.39816655 -4.33779596 -0.29575882 0 0 Z " fill="#100E0C" transform="translate(125,81)"/>
<path d="M0 0 C0.99 0 1.98 0 3 0 C3 4.62 3 9.24 3 14 C-3.93359375 14.09765625 -3.93359375 14.09765625 -6 14 C-7 13 -7 13 -7.1875 9.5625 C-7 6 -7 6 -5 4 C-2.375 3.875 -2.375 3.875 0 4 C0 2.68 0 1.36 0 0 Z M-3 6 C-3.33 7.65 -3.66 9.3 -4 11 C-2.68 11 -1.36 11 0 11 C-0.33 9.35 -0.66 7.7 -1 6 C-1.66 6 -2.32 6 -3 6 Z " fill="#110F0D" transform="translate(213,81)"/>
<path d="M0 0 C6.0546875 -0.1953125 6.0546875 -0.1953125 8 0 C10 2 10 2 10.25 5 C10 8 10 8 8 10 C5.375 10.125 5.375 10.125 3 10 C3 11.32 3 12.64 3 14 C2.01 14 1.02 14 0 14 C0 9.38 0 4.76 0 0 Z M4 2 C3.67 3.65 3.34 5.3 3 7 C4.32 7 5.64 7 7 7 C6.67 5.35 6.34 3.7 6 2 C5.34 2 4.68 2 4 2 Z " fill="#100E0D" transform="translate(155,85)"/>
<path d="M0 0 C6.0546875 -0.1953125 6.0546875 -0.1953125 8 0 C10 2 10 2 10.25 5 C10 8 10 8 8 10 C5.375 10.125 5.375 10.125 3 10 C3 11.32 3 12.64 3 14 C2.01 14 1.02 14 0 14 C0 9.38 0 4.76 0 0 Z M4 2 C3.67 3.65 3.34 5.3 3 7 C4.32 7 5.64 7 7 7 C6.67 5.35 6.34 3.7 6 2 C5.34 2 4.68 2 4 2 Z " fill="#110F0C" transform="translate(79,85)"/>
<path d="M0 0 C0.99 0 1.98 0 3 0 C3 4.62 3 9.24 3 14 C1.72125 14.061875 0.4425 14.12375 -0.875 14.1875 C-1.59429687 14.22230469 -2.31359375 14.25710937 -3.0546875 14.29296875 C-3.69664062 14.19628906 -4.33859375 14.09960938 -5 14 C-7 11 -7 11 -6.6875 7.875 C-6 5 -6 5 -5 4 C-3.33382885 3.95936168 -1.66611905 3.957279 0 4 C0 2.68 0 1.36 0 0 Z M-3 6 C-3.33 7.65 -3.66 9.3 -4 11 C-2.68 11.33 -1.36 11.66 0 12 C0 10.35 0 8.7 0 7 C-0.99 6.67 -1.98 6.34 -3 6 Z " fill="#100E0C" transform="translate(239,81)"/>
<path d="M0 0 C1.32 0 2.64 0 4 0 C4.67031719 1.9570868 5.33614683 3.91571113 6 5.875 C6.556875 7.51082031 6.556875 7.51082031 7.125 9.1796875 C8 12 8 12 8 14 C7.01 14 6.02 14 5 14 C4.67 12.68 4.34 11.36 4 10 C2.68 10 1.36 10 0 10 C-0.33 11.32 -0.66 12.64 -1 14 C-1.99 14 -2.98 14 -4 14 C-3.52188823 12.22888156 -3.0424722 10.45811517 -2.5625 8.6875 C-2.29566406 7.70136719 -2.02882812 6.71523437 -1.75390625 5.69921875 C-1.21920575 3.78482474 -0.62855462 1.88566385 0 0 Z M1 6 C1 6.66 1 7.32 1 8 C1.66 8 2.32 8 3 8 C3 7.34 3 6.68 3 6 C2.34 6 1.68 6 1 6 Z " fill="#0F0E0C" transform="translate(42,81)"/>
<path d="M0 0 C1.4540625 0.0309375 1.4540625 0.0309375 2.9375 0.0625 C2.9375 1.0525 2.9375 2.0425 2.9375 3.0625 C1.6175 3.0625 0.2975 3.0625 -1.0625 3.0625 C-1.0625 3.7225 -1.0625 4.3825 -1.0625 5.0625 C-0.423125 5.289375 0.21625 5.51625 0.875 5.75 C2.9375 7.0625 2.9375 7.0625 3.8125 9.5625 C3.85375 10.3875 3.895 11.2125 3.9375 12.0625 C1.9375 14.0625 1.9375 14.0625 -1.6875 14.1875 C-2.80125 14.14625 -3.915 14.105 -5.0625 14.0625 C-5.0625 13.0725 -5.0625 12.0825 -5.0625 11.0625 C-3.4125 11.0625 -1.7625 11.0625 -0.0625 11.0625 C-0.908125 10.340625 -1.75375 9.61875 -2.625 8.875 C-5.0625 6.0625 -5.0625 6.0625 -4.9375 3.3125 C-3.6785 0.07507143 -3.6785 0.07507143 0 0 Z " fill="#0F0D0B" transform="translate(175.0625,80.9375)"/>
<path d="M0 0 C3.0625 0.1875 3.0625 0.1875 5.0625 2.1875 C5.3125 5.1875 5.3125 5.1875 5.0625 8.1875 C3.0625 10.1875 3.0625 10.1875 0.0625 10.4375 C-2.9375 10.1875 -2.9375 10.1875 -4.9375 8.1875 C-4.24305556 0.27083333 -4.24305556 0.27083333 0 0 Z M-0.9375 2.1875 C-1.2675 3.8375 -1.5975 5.4875 -1.9375 7.1875 C-0.6175 7.1875 0.7025 7.1875 2.0625 7.1875 C1.7325 5.5375 1.4025 3.8875 1.0625 2.1875 C0.4025 2.1875 -0.2575 2.1875 -0.9375 2.1875 Z " fill="#100E0C" transform="translate(137.9375,84.8125)"/>
<path d="M0 0 C6.15234375 -0.09765625 6.15234375 -0.09765625 8 0 C9 1 9 1 9.09765625 3.06640625 C9.08605469 3.89011719 9.07445313 4.71382813 9.0625 5.5625 C9.05347656 6.38878906 9.04445313 7.21507813 9.03515625 8.06640625 C9.02355469 8.70449219 9.01195313 9.34257813 9 10 C8.01 10 7.02 10 6 10 C5.67 7.69 5.34 5.38 5 3 C4.67 3 4.34 3 4 3 C3.67 5.31 3.34 7.62 3 10 C2.01 10 1.02 10 0 10 C0 6.7 0 3.4 0 0 Z " fill="#100E0C" transform="translate(100,85)"/>
<path d="M0 0 C2.33294775 -0.04241723 4.66702567 -0.04092937 7 0 C8 1 8 1 8.09765625 3.06640625 C8.08605469 3.89011719 8.07445312 4.71382813 8.0625 5.5625 C8.05347656 6.38878906 8.04445312 7.21507813 8.03515625 8.06640625 C8.02355469 8.70449219 8.01195312 9.34257813 8 10 C5.36 10 2.72 10 0 10 C0 8.35 0 6.7 0 5 C1.32 4.34 2.64 3.68 4 3 C2.68 2.67 1.36 2.34 0 2 C0 1.34 0 0.68 0 0 Z M3 6 C3 6.66 3 7.32 3 8 C3.66 8 4.32 8 5 8 C5 7.34 5 6.68 5 6 C4.34 6 3.68 6 3 6 Z " fill="#100E0C" transform="translate(217,85)"/>
<path d="M0 0 C2.64 0 5.28 0 8 0 C9.60725635 3.21451269 9.05748185 6.43612536 9 10 C8.01 10 7.02 10 6 10 C5.67 7.69 5.34 5.38 5 3 C4.67 3 4.34 3 4 3 C3.67 5.31 3.34 7.62 3 10 C2.01 10 1.02 10 0 10 C0 6.7 0 3.4 0 0 Z " fill="#100D0C" transform="translate(51,85)"/>
<path d="M0 0 C2.31 0 4.62 0 7 0 C8.60725635 3.21451269 8.05748185 6.43612536 8 10 C5.36 10 2.72 10 0 10 C-0.125 7.625 -0.125 7.625 0 5 C0.66 4.34 1.32 3.68 2 3 C1.34 2.67 0.68 2.34 0 2 C0 1.34 0 0.68 0 0 Z M3 6 C2.67 6.66 2.34 7.32 2 8 C2.99 8 3.98 8 5 8 C5 7.34 5 6.68 5 6 C4.34 6 3.68 6 3 6 Z " fill="#0F0E0C" transform="translate(186,85)"/>
<path d="M0 0 C2.875 -0.125 2.875 -0.125 6 0 C8 2 8 2 8 6 C6.02 6 4.04 6 2 6 C2 6.66 2 7.32 2 8 C3.65 8 5.3 8 7 8 C7 8.66 7 9.32 7 10 C4.66705225 10.04241723 2.33297433 10.04092937 0 10 C-1 9 -1 9 -1.125 5.5625 C-1 2 -1 2 0 0 Z M2 2 C2 2.66 2 3.32 2 4 C2.99 3.67 3.98 3.34 5 3 C4.01 2.67 3.02 2.34 2 2 Z " fill="#0F0D0C" transform="translate(91,85)"/>
<path d="M0 0 C0.99 0 1.98 0 3 0 C3.185625 1.7015625 3.185625 1.7015625 3.375 3.4375 C3.684375 5.2009375 3.684375 5.2009375 4 7 C4.66 7.33 5.32 7.66 6 8 C6.33 5.36 6.66 2.72 7 0 C7.66 0 8.32 0 9 0 C9 3.3 9 6.6 9 10 C6.36 10 3.72 10 1 10 C-0.60725635 6.78548731 -0.05748185 3.56387464 0 0 Z " fill="#100E0C" transform="translate(144,85)"/>
<path d="M0 0 C3.375 -0.1875 3.375 -0.1875 7 0 C9.4294516 3.6441774 9.16179575 5.71241272 9 10 C8.01 10 7.02 10 6 10 C5.87625 8.865625 5.7525 7.73125 5.625 6.5625 C5.41875 5.386875 5.2125 4.21125 5 3 C4.34 2.67 3.68 2.34 3 2 C2.67 4.64 2.34 7.28 2 10 C1.34 10 0.68 10 0 10 C0 6.7 0 3.4 0 0 Z " fill="#100E0C" transform="translate(196,85)"/>
<path d="M0 0 C0.99 0 1.98 0 3 0 C3 0.66 3 1.32 3 2 C3.66 2 4.32 2 5 2 C5 2.66 5 3.32 5 4 C4.34 4 3.68 4 3 4 C3 5.98 3 7.96 3 10 C3.66 10 4.32 10 5 10 C5 10.66 5 11.32 5 12 C3.35 11.67 1.7 11.34 0 11 C-0.19491452 9.54263913 -0.38069358 8.08405407 -0.5625 6.625 C-0.66691406 5.81289062 -0.77132812 5.00078125 -0.87890625 4.1640625 C-1 2 -1 2 0 0 Z " fill="#110E0D" transform="translate(180,83)"/>
<path d="M0 0 C1.98 0 3.96 0 6 0 C5.690625 0.53625 5.38125 1.0725 5.0625 1.625 C3.82172561 4.3984957 3.4090325 7.00042837 3 10 C2.34 10 1.68 10 1 10 C0.67 6.7 0.34 3.4 0 0 Z " fill="#0E0D0B" transform="translate(127,85)"/>
<path d="M0 0 C1.65 0 3.3 0 5 0 C4.01 3.3 3.02 6.6 2 10 C1.34 10 0.68 10 0 10 C0 6.7 0 3.4 0 0 Z " fill="#100E0C" transform="translate(227,85)"/>
</svg>
