<?xml version="1.0" encoding="UTF-8"?>
<svg version="1.1" xmlns="http://www.w3.org/2000/svg" width="1600" height="226">
<path d="M0 0 C0 35.64 0 71.28 0 108 C-40.26 108 -80.52 108 -122 108 C-122 77.97 -122 47.94 -122 17 C-102.0016762 13.98848771 -82.00266708 10.98238201 -62 8 C-61.3195462 7.89851402 -60.63909241 7.79702805 -59.9380188 7.69246674 C-51.55577149 6.44253035 -43.17253184 5.19954546 -34.78762817 3.9675293 C-32.39615397 3.61544422 -30.00493579 3.26161558 -27.61398315 2.90600586 C-24.27850324 2.41035762 -20.94214151 1.92113789 -17.60546875 1.43359375 C-16.14062042 1.21394203 -16.14062042 1.21394203 -14.6461792 0.98985291 C-13.28254242 0.79269432 -13.28254242 0.79269432 -11.89135742 0.59155273 C-10.72052864 0.41909279 -10.72052864 0.41909279 -9.52604675 0.2431488 C-6.36427729 -0.06119254 -3.17638313 0 0 0 Z " fill="#00178F" transform="translate(225,0)"/>
<path d="M0 0 C40.26 0 80.52 0 122 0 C122 35.31 122 70.62 122 107 C114.25093771 106.35424481 106.64823878 105.62673805 98.97070312 104.52539062 C97.9414975 104.38054733 96.91229187 104.23570404 95.85189819 104.08647156 C92.49453212 103.6130804 89.13788434 103.1347997 85.78125 102.65625 C83.43147084 102.32353328 81.08165744 101.99105836 78.73181152 101.65881348 C73.82968954 100.96495488 68.92790541 100.26877101 64.02636719 99.57080078 C57.74106162 98.67589211 51.45506669 97.78593861 45.16883087 96.89759064 C40.3268311 96.21294307 35.4851367 95.52615647 30.64353943 94.83866882 C28.32474122 94.50958318 26.00586332 94.18105848 23.68690491 93.85310364 C20.4556795 93.39571344 17.22486021 92.93555699 13.99414062 92.47460938 C13.03619598 92.33951462 12.07825134 92.20441986 11.09127808 92.06523132 C9.77119247 91.8760186 9.77119247 91.8760186 8.42443848 91.6829834 C7.28082729 91.52039158 7.28082729 91.52039158 6.11411285 91.35451508 C4.05540587 91.009291 2.0251255 90.50628137 0 90 C0 60.3 0 30.6 0 0 Z " fill="#00188F" transform="translate(103,119)"/>
<path d="M0 0 C5.94 0 11.88 0 18 0 C24.75175833 23.77987132 31.40440056 47.58690841 38.00989532 71.40776443 C38.62527272 73.62598306 39.24134276 75.84400825 39.85760498 78.0619812 C40.83964918 81.59682295 41.81982494 85.13217766 42.79857635 88.66793251 C43.16369982 89.98592919 43.52941583 91.30376189 43.89575958 92.62141991 C44.40176239 94.44196801 44.90528253 96.26320559 45.40869141 98.08447266 C45.69306061 99.11045563 45.97742981 100.1364386 46.27041626 101.19351196 C46.94402314 103.78467396 47.50539533 106.36945685 48 109 C48.25071007 108.10205719 48.25071007 108.10205719 48.50648499 107.18597412 C58.49899002 71.40639328 68.64401812 35.67635759 79 0 C84.61 0 90.22 0 96 0 C98.60085017 9.52117086 101.20090198 19.04255886 103.79968262 28.56429482 C105.00743093 32.98927886 106.21548161 37.41417982 107.42431641 41.83886719 C113.35308163 63.54084804 119.23886357 85.2528406 125 107 C125.33 107 125.66 107 126 107 C126.24419678 106.03255859 126.48839355 105.06511719 126.73999023 104.06835938 C133.05022679 79.10364394 139.5654013 54.19598371 146.1875 29.3125 C146.38136669 28.58400848 146.57523338 27.85551697 146.77497482 27.10494995 C149.17994311 18.06906602 151.5886476 9.03418252 154 0 C159.94 0 165.88 0 172 0 C171.27275491 5.09071564 170.36547752 9.74091767 168.96557617 14.63964844 C168.65745782 15.7383824 168.65745782 15.7383824 168.34311485 16.85931301 C167.66394402 19.27720802 166.97846383 21.6932661 166.29296875 24.109375 C165.8104622 25.8226653 165.3283692 27.53607211 164.84666443 29.24958801 C163.56297555 33.81188986 162.27396461 38.37267146 160.98383331 42.93315506 C159.65924634 47.61857516 158.33922111 52.30527946 157.01904297 56.99194336 C155.4538987 62.54763471 153.88853913 68.10326385 152.32110596 73.65830994 C149.47352956 83.75227353 146.64051485 93.84993333 143.83984375 103.95703125 C143.55149155 104.99675079 143.26313934 106.03647034 142.96604919 107.10769653 C141.93876248 110.81368828 140.91198829 114.51980492 139.89144897 118.22766113 C139.23504443 120.61217321 138.57493809 122.99563033 137.9140625 125.37890625 C137.63761147 126.39148247 137.63761147 126.39148247 137.35557556 127.42451477 C136.11359862 131.88640138 136.11359862 131.88640138 135 133 C133.58429877 133.08651611 132.164405 133.10704904 130.74609375 133.09765625 C129.89208984 133.09443359 129.03808594 133.09121094 128.15820312 133.08789062 C127.26037109 133.07951172 126.36253906 133.07113281 125.4375 133.0625 C124.53580078 133.05798828 123.63410156 133.05347656 122.70507812 133.04882812 C120.46998366 133.03700223 118.23503507 133.01968245 116 133 C113.92273757 127.63701076 112.13296554 122.29442671 110.59570312 116.75488281 C110.3757518 115.97319733 110.15580048 115.19151184 109.92918396 114.38613892 C109.20979032 111.82607834 108.49541896 109.26464753 107.78125 106.703125 C107.27731697 104.90477386 106.77312138 103.10649628 106.26867676 101.30828857 C105.21422016 97.5466238 104.16210486 93.78431502 103.11181641 90.02148438 C101.77391276 85.22848792 100.43148584 80.43677376 99.08744049 75.64549637 C98.04624176 71.93269947 97.00683062 68.21940406 95.96800232 64.5059433 C95.47406544 62.74061915 94.97974056 60.97540351 94.48500061 59.21030426 C91.85945245 49.83724685 89.27947343 40.46484688 87 31 C80.93446291 51.55331835 75.12698365 72.17805399 69.32098389 92.80578613 C68.0409716 97.35252328 66.75968237 101.89890055 65.47851562 106.4453125 C62.98446039 115.2965327 60.49188846 124.14816954 58 133 C51.4 133 44.8 133 38 133 C29.42238974 104.53381102 21.0551745 76.00775083 12.77856445 47.45278931 C11.67435093 43.64317821 10.56830004 39.8341081 9.46069336 36.02548218 C8.13722538 31.4738116 6.81787351 26.92096772 5.50168991 22.36718559 C5.00858548 20.66336783 4.51413715 18.95993839 4.0182991 17.25691414 C3.33542012 14.91030139 2.65754554 12.56230006 1.98095703 10.21386719 C1.77850624 9.52228862 1.57605545 8.83071005 1.36746979 8.11817455 C0.56076912 5.30091687 0 2.94877852 0 0 Z " fill="#00178F" transform="translate(293,47)"/>
<path d="M0 0 C30.36 0 60.72 0 92 0 C92 29.7 92 59.4 92 90 C75.91705439 88.85121817 75.91705439 88.85121817 69.25048828 87.87670898 C68.47565031 87.76755441 67.70081234 87.65839983 66.90249443 87.54593754 C64.45777406 87.20045686 62.0140461 86.84847835 59.5703125 86.49609375 C58.03578793 86.27824924 56.50120121 86.060842 54.96655273 85.84387207 C49.35195188 85.04701435 43.73854289 84.24177685 38.125 83.4375 C19.253125 80.7459375 19.253125 80.7459375 0 78 C0 52.26 0 26.52 0 0 Z " fill="#00178F" transform="translate(0,117)"/>
<path d="M0 0 C0 29.7 0 59.4 0 90 C-30.36 90 -60.72 90 -92 90 C-92.020625 77.315625 -92.04125 64.63125 -92.0625 51.5625 C-92.071604 47.5516626 -92.08070801 43.5408252 -92.09008789 39.40844727 C-92.09460449 34.52526855 -92.09460449 34.52526855 -92.09544373 32.24205017 C-92.0969832 30.64125796 -92.10050821 29.04046694 -92.10557556 27.43968201 C-92.11285361 25.02039564 -92.1139074 22.60118037 -92.11352539 20.18188477 C-92.1171235 19.46411897 -92.12072161 18.74635317 -92.12442875 18.00683689 C-92.11402634 13.11402634 -92.11402634 13.11402634 -91 12 C-88.28590674 11.54580564 -85.58266817 11.14849382 -82.85595703 10.78491211 C-81.575495 10.6091288 -81.575495 10.6091288 -80.26916504 10.42979431 C-77.4325958 10.04149933 -74.59523723 9.65933311 -71.7578125 9.27734375 C-69.79340437 9.01004206 -67.82903922 8.74242438 -65.86471558 8.47450256 C-61.74072709 7.91291996 -57.61636618 7.35418455 -53.49169922 6.79760742 C-48.19918079 6.08335521 -42.90742283 5.36364825 -37.61590767 4.64200497 C-33.55673173 4.08876862 -29.49727122 3.53764563 -25.43770981 2.98724556 C-23.48636356 2.72257126 -21.53508208 2.45741893 -19.58386612 2.19178581 C-16.85712485 1.82105633 -14.13003872 1.45298125 -11.40283203 1.08569336 C-10.59232391 0.97505554 -9.7818158 0.86441772 -8.94674683 0.75042725 C-5.93944386 0.3476671 -3.03807391 0 0 0 Z " fill="#00188F" transform="translate(92,19)"/>
<path d="M0 0 C5.61 0 11.22 0 17 0 C23.6 24.09 30.2 48.18 37 73 C38.85386832 68.05635114 40.60578528 63.25405176 42.16064453 58.23266602 C42.35454773 57.60887558 42.54845093 56.98508514 42.74822998 56.34239197 C43.16335546 55.00597329 43.57743629 53.66922972 43.99054337 52.33218575 C44.64402356 50.21762906 45.30059898 48.10405524 45.95797729 45.9907074 C47.58705216 40.75163761 49.2116932 35.51119643 50.83496094 30.27032471 C52.21326959 25.82034661 53.59396835 21.37112637 54.97829819 16.9230175 C55.62608418 14.83806194 56.27023482 12.75200477 56.91433716 10.66590881 C57.30499359 9.41047775 57.69565002 8.15504669 58.09814453 6.86157227 C58.44217316 5.75096939 58.78620178 4.64036652 59.14065552 3.49610901 C60 1 60 1 61 0 C65.95 0 70.9 0 76 0 C82.6 24.09 89.2 48.18 96 73 C97.78865805 69.42268389 98.82602848 66.37033693 99.86352539 62.53491211 C100.03777542 61.89541122 100.21202545 61.25591034 100.39155579 60.59703064 C100.96422981 58.49152419 101.53093171 56.3844586 102.09765625 54.27734375 C102.49557193 52.81040416 102.89388813 51.34357316 103.29258728 49.87684631 C104.3397977 46.02059382 105.38206719 42.16302358 106.42315674 38.30511475 C107.89225644 32.86474754 109.36806828 27.4261966 110.84312439 21.98744202 C111.62835652 19.09210503 112.41172707 16.19627434 113.19361877 13.30003357 C113.55102932 11.97858514 113.90844579 10.65713832 114.26586914 9.33569336 C114.73314171 7.60505898 114.73314171 7.60505898 115.20985413 5.83946228 C115.75565165 3.8780884 116.35619239 1.93142284 117 0 C122.28 0 127.56 0 133 0 C131.3093721 9.93363283 128.29270414 19.43799021 125.37109375 29.0625 C124.81548798 30.90419021 124.26024174 32.74598892 123.70533752 34.58789062 C122.54736949 38.42811226 121.38635952 42.26739551 120.22290039 46.10595703 C118.72988288 51.03205571 117.24258905 55.95985883 115.75729275 60.88829041 C114.61360802 64.68217433 113.46793668 68.47545578 112.32155037 72.26852417 C111.77214236 74.08654181 111.22312347 75.90467709 110.6744976 77.72293091 C109.91044442 80.25335998 109.14396014 82.78303904 108.37670898 85.3125 C108.14967789 86.0657103 107.92264679 86.81892059 107.68873596 87.59495544 C106.11460692 92.77078615 106.11460692 92.77078615 105 95 C99.39 95 93.78 95 88 95 C85.05399395 87.63294752 82.92747207 80.06542326 80.76953125 72.4375 C80.3705446 71.0363757 79.971263 69.63533535 79.57170105 68.234375 C78.52816117 64.57250567 77.48859484 60.90952018 76.44989014 57.24627686 C75.38633809 53.4981292 74.3189792 49.75106609 73.25195312 46.00390625 C71.16426999 38.67031896 69.08078918 31.3355467 67 24 C66.68885254 25.01384766 66.37770508 26.02769531 66.05712891 27.07226562 C59.10048391 49.73458347 52.09504616 72.38061611 45 95 C39.39 95 33.78 95 28 95 C22.09373136 76.76846815 16.41676169 58.47341947 10.8515625 40.13549805 C9.70902415 36.37182398 8.55947192 32.61032718 7.40853119 28.84921551 C6.51264869 25.91729757 5.62170066 22.98389745 4.73213196 20.05005836 C4.3097487 18.66004496 3.88553119 17.27058747 3.45939636 15.88171959 C2.87070014 13.96139617 2.28965943 12.03873089 1.70898438 10.1159668 C1.37781616 9.02777145 1.04664795 7.93957611 0.70544434 6.81840515 C0 4 0 4 0 0 Z " fill="#00178F" transform="translate(833,85)"/>
<path d="M0 0 C5.28 0 10.56 0 16 0 C16 46.53 16 93.06 16 141 C10.72 141 5.44 141 0 141 C-0.33 136.71 -0.66 132.42 -1 128 C-1.99 129.216875 -2.98 130.43375 -4 131.6875 C-11.8529725 140.65099386 -20.99241381 143.4571128 -32.6875 144.25 C-43.34991733 144.04336401 -52.15907923 140.38072701 -59.93359375 133.21875 C-71.29489831 121.29548844 -72.60210038 106.24872699 -72.30859375 90.6015625 C-71.80899913 78.38326094 -68.67281597 67.72978366 -61 58 C-60.47664062 57.33484375 -59.95328125 56.6696875 -59.4140625 55.984375 C-54.12802704 50.05370107 -45.01287298 44.527445 -36.98217773 43.82299805 C-17.00623876 43.29044779 -17.00623876 43.29044779 -9 48 C-6.36 50.64 -3.72 53.28 -1 56 C-0.67 37.52 -0.34 19.04 0 0 Z M-49 68 C-55.93976418 77.34043842 -56.98775795 91.27480481 -55.71875 102.484375 C-54.21122498 111.81943378 -50.59400647 119.6527173 -43.09765625 125.59375 C-36.8165383 129.80455533 -30.49526308 130.99785651 -23 130 C-15.86098322 128.20724242 -10.33725038 125.00372571 -6 119 C-0.94188502 109.96108285 0.19197072 101.94864584 0.25 91.75 C0.270625 90.85925781 0.29125 89.96851563 0.3125 89.05078125 C0.37364064 78.51930605 -2.01551075 70.78808658 -9.3984375 63.140625 C-14.53257783 58.91613716 -20.05409745 57.36177751 -26.5625 56.5625 C-36.13261601 57.78051476 -42.5122322 60.67467201 -49 68 Z " fill="#00178F" transform="translate(694,39)"/>
<path d="M0 0 C5.24942607 13.69015702 10.13175954 27.51021668 14.99755859 41.34033203 C16.15552649 44.63044929 17.32093852 47.91788194 18.48784447 51.2048378 C19.60926324 54.36904071 20.72199008 57.53628424 21.8359375 60.703125 C22.25459076 61.87909241 22.67324402 63.05505981 23.10458374 64.2666626 C23.48563263 65.35590027 23.86668152 66.44513794 24.25927734 67.56738281 C24.59647797 68.52283997 24.93367859 69.47829712 25.28109741 70.46270752 C26 73 26 73 26 77 C26.66 77 27.32 77 28 77 C28.18014145 75.47089745 28.18014145 75.47089745 28.36392212 73.91090393 C28.97103305 70.17810235 29.8984631 66.97653982 31.17724609 63.42553711 C31.39690536 62.80992416 31.61656464 62.19431122 31.84288025 61.56004333 C32.56319757 59.54672763 33.29306105 57.53702983 34.0234375 55.52734375 C34.53096648 54.11699881 35.03800801 52.70647836 35.54458618 51.29579163 C36.60465146 48.34825653 37.66922185 45.40240272 38.73730469 42.45776367 C40.10170322 38.69567054 41.45687289 34.93033633 42.80893517 31.16379452 C43.85435795 28.25356848 44.90361409 25.34473663 45.95412064 22.43634224 C46.45497872 21.04888871 46.95490901 19.66109987 47.45386887 18.27296257 C48.15352145 16.32896361 48.85806259 14.38680528 49.56396484 12.44506836 C49.96287933 11.34255234 50.36179382 10.24003632 50.77279663 9.10411072 C52.00293555 5.99257476 53.50367799 2.99264402 55 0 C60.61 0 66.22 0 72 0 C70.04014837 6.02532743 67.91498669 11.93008357 65.55419922 17.80859375 C65.05851944 19.05173592 65.05851944 19.05173592 64.55282593 20.31999207 C63.47269212 23.02686648 62.38883279 25.73223001 61.3046875 28.4375 C60.54893131 30.32790183 59.79332864 32.21836504 59.03787231 34.10888672 C57.46100974 38.05324604 55.88229291 41.9968566 54.30224609 45.93994141 C52.27319863 51.0039702 50.24884227 56.0698591 48.22584343 61.13630676 C46.66986412 65.03165948 45.11143591 68.92602872 43.55224991 72.82009888 C42.80429188 74.68899125 42.05710613 76.55819288 41.31069565 78.42770386 C40.27196033 81.02833017 39.22994378 83.62761691 38.18701172 86.2265625 C37.72258667 87.39217964 37.72258667 87.39217964 37.2487793 88.5813446 C35.11426926 93.88573074 35.11426926 93.88573074 34 95 C31.3013095 95.07325436 28.63497444 95.09222351 25.9375 95.0625 C24.52156847 95.05101098 23.10563397 95.03988482 21.68969727 95.02905273 C20.47209717 95.01946533 19.25449707 95.00987793 18 95 C11.58055548 79.20131661 5.50786562 63.27615459 -0.51452637 47.32299805 C-2.23232972 42.77317135 -3.95205518 38.22407174 -5.67303467 33.67544556 C-6.582309 31.27168066 -7.49061716 28.86754997 -8.39776611 26.46298218 C-10.86184448 19.94559013 -13.39047038 13.46058099 -16 7 C-16.33 9.97 -16.66 12.94 -17 16 C-18.299375 15.649375 -19.59875 15.29875 -20.9375 14.9375 C-27.29247053 13.54859921 -32.50839835 13.68368215 -38.3125 16.75 C-45.25416037 22.56162263 -48.49318661 30.16991687 -50 39 C-50.11027198 40.90078517 -50.17524054 42.80450847 -50.20532227 44.70825195 C-50.22526749 45.82903641 -50.24521271 46.94982086 -50.26576233 48.10456848 C-50.28247482 49.3036937 -50.29918732 50.50281891 -50.31640625 51.73828125 C-50.33718735 52.97418503 -50.35796844 54.21008881 -50.37937927 55.48344421 C-50.43359931 58.75652126 -50.48387578 62.0296274 -50.53222656 65.30279541 C-50.5826157 68.6478826 -50.63828816 71.99287724 -50.69335938 75.33789062 C-50.80035946 81.89185979 -50.90167736 88.44589514 -51 95 C-56.28 95 -61.56 95 -67 95 C-67 63.65 -67 32.3 -67 0 C-61.72 0 -56.44 0 -51 0 C-50.505 6.93 -50.505 6.93 -50 14 C-48.7625 12.205625 -48.7625 12.205625 -47.5 10.375 C-35.7021235 -5.40220777 -17.47628077 -1.09355712 0 0 Z " fill="#00178F" transform="translate(1369,85)"/>
<path d="M0 0 C1.19367188 -0.01160156 2.38734375 -0.02320313 3.6171875 -0.03515625 C11.72593439 -0.00854111 19.63805155 0.69402577 27 4.375 C27 10.645 27 16.915 27 23.375 C19.75 20.4375 19.75 20.4375 17.48730469 19.51586914 C6.70551064 15.17618254 -7.93485811 13.89205139 -19 18.0625 C-24.08302305 20.631242 -27.81003404 24.07147374 -30 29.375 C-30.74691473 35.04634095 -30.83132648 40.88068413 -27.50097656 45.77783203 C-21.06875303 52.62227028 -11.90378383 56.6433057 -3.625 60.75 C10.25925745 67.81785152 25.77158644 75.78620351 31.33984375 91.40625 C33.49299298 101.08905127 33.23103928 111.74456131 28 120.375 C21.63746003 129.7584807 12.79199278 134.48000157 1.8828125 136.8515625 C-8.37205551 138.7135575 -18.14768741 138.78370017 -28.4375 137.125 C-29.67765869 136.92801514 -29.67765869 136.92801514 -30.94287109 136.72705078 C-45.04721286 134.32778714 -45.04721286 134.32778714 -49 130.375 C-49.08651611 128.95929877 -49.10704904 127.539405 -49.09765625 126.12109375 C-49.09443359 125.26708984 -49.09121094 124.41308594 -49.08789062 123.53320312 C-49.07951172 122.63537109 -49.07113281 121.73753906 -49.0625 120.8125 C-49.05798828 119.91080078 -49.05347656 119.00910156 -49.04882812 118.08007812 C-49.03700225 115.84498686 -49.0205222 113.61002563 -49 111.375 C-45.65461223 112.65759566 -42.5296591 114.11911276 -39.375 115.8125 C-26.55877239 122.2971286 -11.87840638 124.44201644 2 120.375 C6.77891855 118.39594403 10.11560903 115.70158646 13 111.375 C14.80211131 105.96866608 14.73284031 100.41923876 12.8125 95.0625 C5.36250189 84.01595107 -7.94356797 78.60892094 -19.40625 72.67382812 C-30.48861469 66.82839862 -40.4056869 60.18533228 -46.875 49.1875 C-49.58845253 39.99191089 -50.23547006 30.0851383 -45.99609375 21.29296875 C-39.91461696 10.79589824 -31.48283518 5.29123097 -20.046875 1.7578125 C-13.36072383 -0.00749312 -6.88044731 -0.0668726 0 0 Z " fill="#00178F" transform="translate(1152,44.625)"/>
<path d="M0 0 C10.5233069 8.68119885 14.69253388 18.99410687 16.48828125 32.4375 C16.84931088 37.69667792 16.75 42.97844475 16.75 48.25 C-5.36 48.25 -27.47 48.25 -50.25 48.25 C-47.37120035 63.98392108 -47.37120035 63.98392108 -37.3125 75.25 C-27.36053758 80.55396491 -16.6573241 80.5344817 -6 77.3125 C-1.15070292 75.43890794 3.28021216 72.88299672 7.75 70.25 C8.41 69.92 9.07 69.59 9.75 69.25 C9.75 74.53 9.75 79.81 9.75 85.25 C0.35711636 90.10474885 -7.68184335 93.5175535 -18.25 94.25 C-19.39082031 94.33121094 -19.39082031 94.33121094 -20.5546875 94.4140625 C-32.62483033 94.84937913 -43.90874724 92.08602719 -53.25 84.25 C-64.07572041 73.5338147 -67.20989218 59.76235927 -67.5625 44.9375 C-67.31020443 29.42132232 -63.37210498 16.81492706 -52.63671875 5.51171875 C-39.07376536 -7.34089993 -15.91069646 -11.16435361 0 0 Z M-39.3984375 13.48828125 C-45.072474 18.88699531 -48.44392772 24.61379964 -50.25 32.25 C-50.25 32.91 -50.25 33.57 -50.25 34.25 C-33.75 34.25 -17.25 34.25 -0.25 34.25 C-1.15926506 25.15734941 -1.99465416 17.29975464 -9.375 11.25 C-19.26681537 5.20739105 -30.64414322 6.28604313 -39.3984375 13.48828125 Z " fill="#00178F" transform="translate(1266.25,88.75)"/>
<path d="M0 0 C11.17130936 8.19336666 16.18652514 17.2731803 18.6875 30.6875 C19.15282646 37.10900514 19 43.56165728 19 50 C-3.11 50 -25.22 50 -48 50 C-44.18798387 66.75676678 -44.18798387 66.75676678 -33 78 C-22.49341541 82.78712984 -11.63747046 81.80947349 -1 78 C3.5881704 76.03029141 7.71309309 73.57214414 12 71 C12 76.28 12 81.56 12 87 C3.01686425 92.3609036 -5.52280499 95.40554922 -16 96 C-16.70640625 96.04125 -17.4128125 96.0825 -18.140625 96.125 C-30.14487402 96.47044601 -42.44341167 93.93901258 -51.56640625 85.6171875 C-62.09650953 73.73854238 -65.4065222 58.83405816 -65.2109375 43.34375 C-64.19473336 27.23503254 -58.72001624 15.07892133 -47 4 C-34.84917698 -5.8769848 -13.6391907 -8.07526688 0 0 Z M-39 17 C-44.18413711 23.13417129 -45.57356944 27.91189814 -48 36 C-31.5 36 -15 36 2 36 C2 28.13381923 1.11978363 23.20995807 -3.1875 16.6875 C-13.81573595 6.53163009 -28.5303293 6.68494469 -39 17 Z " fill="#00178F" transform="translate(1512,87)"/>
<path d="M0 0 C9.32786912 7.74626511 14.13343735 17.81534792 16.02734375 29.68359375 C17.50652241 46.80774275 16.10703067 62.81753012 5.02734375 76.68359375 C-4.33836931 87.02305769 -15.67818727 90.79590137 -29.30859375 91.8671875 C-42.3395276 92.2670537 -54.13914336 88.64310126 -64.34765625 80.43359375 C-68.58510438 76.41593027 -71.40350461 71.89790744 -73.97265625 66.68359375 C-74.38773438 65.88179688 -74.8028125 65.08 -75.23046875 64.25390625 C-80.64660813 51.48999736 -80.26975452 32.32741157 -75.2890625 19.3984375 C-69.01217507 6.45352129 -61.18125873 -1.11008084 -47.734375 -6.40625 C-32.22101594 -11.51885631 -13.25927587 -9.61477328 0 0 Z M-51.97265625 12.68359375 C-59.95711338 21.77747019 -62.33025498 32.62537664 -62.18359375 44.4609375 C-61.46585594 55.42637622 -57.83119034 63.59908133 -50.28515625 71.49609375 C-41.68992869 77.17218742 -32.70212909 79.1994223 -22.5625 77.2109375 C-15.74408828 75.25780756 -10.15729799 71.99688633 -6.2109375 66.01171875 C0.53089088 53.40956012 1.34509778 40.37175089 -1.65625 26.53125 C-4.05779723 18.92101367 -8.3947988 12.66126319 -15.140625 8.2734375 C-27.47636465 2.18198376 -41.3665042 4.09242741 -51.97265625 12.68359375 Z " fill="#00178F" transform="translate(808.97265625,91.31640625)"/>
<path d="M0 0 C0.63292969 0.433125 1.26585937 0.86625 1.91796875 1.3125 C2.62308594 1.786875 3.32820312 2.26125 4.0546875 2.75 C11.89474697 8.77858547 14.75671186 16.68696539 16.03857422 26.27563477 C17.00927354 33.82500841 17.17689627 41.29134914 17.11328125 48.90234375 C17.11045135 50.21288223 17.10762146 51.52342072 17.10470581 52.87367249 C17.09719199 56.30126055 17.07765452 59.7286699 17.05529785 63.15618896 C17.0345698 66.67636703 17.02564743 70.19657493 17.015625 73.71679688 C16.99439238 80.58211056 16.95931593 87.44727822 16.91796875 94.3125 C11.63796875 94.3125 6.35796875 94.3125 0.91796875 94.3125 C0.88823975 91.9765979 0.88823975 91.9765979 0.85791016 89.59350586 C0.78115892 83.75058303 0.69255543 77.90788699 0.60058594 72.06518555 C0.56258075 69.54862992 0.52768136 67.03202522 0.49609375 64.51538086 C1.61406072 38.22358129 1.61406072 38.22358129 -8.14453125 14.9375 C-13.62434584 11.90611321 -20.07123651 10.58879259 -26.26953125 11.875 C-34.38326467 14.5463928 -38.7540841 18.48460436 -42.953125 25.91015625 C-44.93883858 30.13580972 -45.221093 33.80084034 -45.28735352 38.45800781 C-45.30729874 39.69899231 -45.32724396 40.93997681 -45.34779358 42.21856689 C-45.36477518 43.567585 -45.38165408 44.91660441 -45.3984375 46.265625 C-45.41902001 47.64996951 -45.44001682 49.03430792 -45.46141052 50.41864014 C-45.51649732 54.055044 -45.56596539 57.69150333 -45.61425781 61.32800293 C-45.66457089 65.04163525 -45.72020567 68.75518744 -45.77539062 72.46875 C-45.88280832 79.74993392 -45.98379731 87.03118533 -46.08203125 94.3125 C-51.36203125 94.3125 -56.64203125 94.3125 -62.08203125 94.3125 C-62.08203125 62.9625 -62.08203125 31.6125 -62.08203125 -0.6875 C-56.80203125 -0.6875 -51.52203125 -0.6875 -46.08203125 -0.6875 C-45.75203125 3.2725 -45.42203125 7.2325 -45.08203125 11.3125 C-44.27765625 10.260625 -43.47328125 9.20875 -42.64453125 8.125 C-33.10103039 -3.02036507 -13.10843952 -7.30218681 0 0 Z " fill="#00188F" transform="translate(586.08203125,85.6875)"/>
<path d="M0 0 C1 1 1 1 1.09765625 4.59765625 C1.0909822 6.08596867 1.07902183 7.57426432 1.0625 9.0625 C1.05798828 9.82111328 1.05347656 10.57972656 1.04882812 11.36132812 C1.0370068 13.24091871 1.01907078 15.12046899 1 17 C-4.51486014 15.18269231 -4.51486014 15.18269231 -7.16796875 14.18359375 C-16.2206248 10.8391889 -24.74198546 10.16857503 -34 13 C-34.969375 13.268125 -35.93875 13.53625 -36.9375 13.8125 C-39.16438773 14.87201777 -39.16438773 14.87201777 -40.3125 17.1875 C-41.49706801 22.03346004 -41.78775875 25.51522922 -39.40625 30.00390625 C-36.68126571 33.39686558 -34.04222461 34.87314699 -30.125 36.5 C-29.46733643 36.79277832 -28.80967285 37.08555664 -28.13208008 37.38720703 C-24.87010465 38.82770162 -21.57936108 40.17451852 -18.25390625 41.4609375 C-8.84738085 45.19057846 -1.50514748 49.63918621 4.125 58.25 C6.1627704 66.9833017 6.1095785 74.9705379 1.5390625 82.84765625 C-4.35208152 91.0862866 -12.82097878 94.28138551 -22.5 96.25 C-35.28862045 98.25887166 -47.38735513 96.80632244 -59 91 C-59 85.39 -59 79.78 -59 74 C-54.27893459 75.88842617 -49.60851469 77.87108488 -44.9375 79.87890625 C-36.31873064 83.16825041 -26.39384643 83.26015277 -17.77734375 79.91015625 C-15.29508162 78.63901982 -14.16303182 77.54413211 -13 75 C-11.68654767 70.77818894 -11.84842446 67.67777032 -13.80639648 63.65014648 C-17.91199417 57.97419337 -26.22847157 55.47639806 -32.5 53 C-42.57915447 49.02010915 -52.96296182 44.41912236 -57.9140625 34.09375 C-60.03228317 27.20247208 -59.27920853 19.23448733 -56.375 12.6875 C-51.58041128 4.32682928 -42.80564068 -0.1375269 -33.73046875 -2.62109375 C-22.64142426 -4.15991681 -10.55583087 -3.87314707 0 0 Z " fill="#00178F" transform="translate(1033,86)"/>
<path d="M0 0 C2.578125 0.020625 5.15625 0.04125 7.8125 0.0625 C7.8125 5.6725 7.8125 11.2825 7.8125 17.0625 C5.8325 16.5365625 5.8325 16.5365625 3.8125 16 C-2.79425016 14.56059832 -8.61494865 14.86955039 -14.5234375 18.66015625 C-22.45188328 25.3416399 -24.57662094 35.38436538 -25.48373413 45.30093384 C-25.6236812 48.58471768 -25.68036786 51.8578661 -25.69921875 55.14453125 C-25.71716995 56.32472336 -25.73512115 57.50491547 -25.75361633 58.72087097 C-25.80719527 62.43887912 -25.84144582 66.15676286 -25.875 69.875 C-25.90821937 72.41733483 -25.94271319 74.95965335 -25.97851562 77.50195312 C-26.06289116 83.68871149 -26.12995036 89.87543632 -26.1875 96.0625 C-31.4675 96.0625 -36.7475 96.0625 -42.1875 96.0625 C-42.1875 64.7125 -42.1875 33.3625 -42.1875 1.0625 C-36.9075 1.0625 -31.6275 1.0625 -26.1875 1.0625 C-25.8575 6.0125 -25.5275 10.9625 -25.1875 16.0625 C-24.3625 14.70125 -23.5375 13.34 -22.6875 11.9375 C-16.78874459 3.05433864 -10.50139527 -0.11832263 0 0 Z " fill="#00188F" transform="translate(1592.1875,83.9375)"/>
<path d="M0 0 C5.28 0 10.56 0 16 0 C16 31.35 16 62.7 16 95 C10.72 95 5.44 95 0 95 C0 63.65 0 32.3 0 0 Z " fill="#00188F" transform="translate(480,85)"/>
<path d="M0 0 C2.8100346 1.79363911 4.50940468 3.01880935 6 6 C6.64233846 10.6707182 6.62020335 13.9870012 4.125 18.0625 C-0.26615167 20.78501403 -3.96787078 21.14666551 -9 20 C-11.82741495 18.27213531 -12.34358138 17.09198143 -14 14 C-14.91506578 9.77091223 -14.4917442 6.77039925 -12.125 3.0625 C-8.49059499 -0.46501074 -4.90782663 -0.7051475 0 0 Z " fill="#00178F" transform="translate(492,41)"/>
</svg>
